<mxfile host="Electron" modified="2024-05-02T15:24:57.233Z" agent="Mozilla/5.0 (Macintosh; Intel Mac OS X 10_15_7) AppleWebKit/537.36 (KHTML, like Gecko) draw.io/24.1.0 Chrome/120.0.6099.109 Electron/28.1.0 Safari/537.36" etag="LC81bLarnn4cskqI-t8r" version="24.1.0" type="device" pages="2">
  <diagram name="with-front" id="TaEqysoNZxIJhuxPsZkW">
    <mxGraphModel dx="1026" dy="772" grid="1" gridSize="10" guides="1" tooltips="1" connect="1" arrows="1" fold="1" page="1" pageScale="1" pageWidth="1200" pageHeight="1600" math="0" shadow="0">
      <root>
        <mxCell id="J47Reuz6JDjN8YAeEeK1-0" />
        <mxCell id="J47Reuz6JDjN8YAeEeK1-1" parent="J47Reuz6JDjN8YAeEeK1-0" />
        <mxCell id="J47Reuz6JDjN8YAeEeK1-2" value="IBM Cloud" style="shape=mxgraph.ibm.box;prType=cloud;fontStyle=0;verticalAlign=top;align=left;spacingLeft=32;spacingTop=4;fillColor=none;rounded=0;whiteSpace=wrap;html=1;strokeColor=#4376BB;strokeWidth=3;dashed=0;container=1;spacing=-4;collapsible=0;expand=0;recursiveResize=0;" parent="J47Reuz6JDjN8YAeEeK1-1" vertex="1">
          <mxGeometry x="400" y="120" width="700" height="520" as="geometry" />
        </mxCell>
        <mxCell id="J47Reuz6JDjN8YAeEeK1-3" value="Dallas" style="shape=mxgraph.ibm.box;prType=region;fontStyle=0;verticalAlign=top;align=left;spacingLeft=32;spacingTop=4;fillColor=none;rounded=0;whiteSpace=wrap;html=1;strokeColor=#919191;strokeWidth=2;dashed=0;container=1;spacing=-4;collapsible=0;expand=0;recursiveResize=0;" parent="J47Reuz6JDjN8YAeEeK1-2" vertex="1">
          <mxGeometry x="10" y="30" width="680" height="480" as="geometry" />
        </mxCell>
        <mxCell id="J47Reuz6JDjN8YAeEeK1-4" value="Databases for MongoDB" style="shape=image;verticalLabelPosition=bottom;labelBackgroundColor=default;verticalAlign=top;aspect=fixed;imageAspect=0;image=data:image/svg+xml,PHN2ZyB4bWxuczp4bGluaz0iaHR0cDovL3d3dy53My5vcmcvMTk5OS94bGluayIgeG1sbnM9Imh0dHA6Ly93d3cudzMub3JnLzIwMDAvc3ZnIiB4bWw6c3BhY2U9InByZXNlcnZlIiBzdHlsZT0iZW5hYmxlLWJhY2tncm91bmQ6bmV3IDAgMCAzMiAzMjsiIHZpZXdCb3g9IjAgMCAzMiAzMiIgeT0iMHB4IiB4PSIwcHgiIGlkPSJQYWRkaW5nIiB2ZXJzaW9uPSIxLjEiPiYjeGE7PHN0eWxlIHR5cGU9InRleHQvY3NzIj4mI3hhOwkuc3Qwe2ZpbGw6dXJsKCNTVkdJRF8xXyk7fSYjeGE7PC9zdHlsZT4mI3hhOzxsaW5lYXJHcmFkaWVudCBncmFkaWVudFRyYW5zZm9ybT0ibWF0cml4KDEgMCAwIC0xIDAgMzIpIiB5Mj0iMjkuODA2NyIgeDI9IjMyLjAyNjQiIHkxPSItMC40OTkzIiB4MT0iMS43MjAzIiBncmFkaWVudFVuaXRzPSJ1c2VyU3BhY2VPblVzZSIgaWQ9IlNWR0lEXzFfIj4mI3hhOwk8c3RvcCBzdHlsZT0ic3RvcC1jb2xvcjojMDA5RDlBIiBvZmZzZXQ9IjAuMSIvPiYjeGE7CTxzdG9wIHN0eWxlPSJzdG9wLWNvbG9yOiMyNEExNDgiIG9mZnNldD0iMC45Ii8+JiN4YTs8L2xpbmVhckdyYWRpZW50PiYjeGE7PHBhdGggZD0iTTE0LjMsMTIuN2wtNC42LDguNGwtNC42LTguN1YyNEgyLjJWNy45aDMuNGw0LjIsNy45bDQuMS03LjloMy4zVjI0aC0yLjlWMTIuN0wxNC4zLDEyLjd6IE0zMS43LDI1ICBjMCwwLjYtMC4xLDEuMi0wLjMsMS43Yy0wLjIsMC41LTAuNiwwLjktMS4xLDEuMmMtMC41LDAuMy0xLjIsMC42LTIuMSwwLjhjLTAuOSwwLjItMS43LDAuMi0yLjgsMC4yYy0xLDAtMS45LTAuMS0yLjYtMC4yICBzLTEuMi0wLjItMS43LTAuNWMtMC41LTAuMy0wLjgtMC42LTEtMXMtMC4zLTAuOC0wLjMtMS4yYzAtMC43LDAuMi0xLjIsMC42LTEuNnMwLjktMC42LDEuNi0wLjd2LTAuM2MtMC41LTAuMS0wLjktMC40LTEuMS0wLjcgIGMtMC4zLTAuNC0wLjQtMC44LTAuNC0xLjNjMC0wLjMsMC4xLTAuNiwwLjItMC44YzAuMS0wLjIsMC4yLTAuNCwwLjQtMC42czAuNS0wLjQsMC44LTAuNXMwLjUtMC4xLDAuOC0wLjJ2LTAuMSAgYy0wLjctMC4zLTEuMy0wLjgtMS42LTEuNHMtMC41LTEuMy0wLjUtMi4xYzAtMS4yLDAuNC0yLjIsMS4zLTNjMC44LTAuNywyLjEtMS4xLDMuNy0xLjFjMC40LDAsMC44LDAsMS4yLDAuMSAgYzAuNSwwLjEsMC42LDAuMSwwLjksMC4ydi0wLjRjMC0xLjIsMC42LTEuNywxLjctMS43SDMxdjIuM2gtMi42djAuM2MwLjYsMC40LDEuMSwwLjgsMS40LDEuNGMwLjMsMC42LDAuNSwxLjIsMC41LDIgIGMwLDEuMi0wLjQsMi4yLTEuMywyLjljLTAuOCwwLjctMi4xLDEuMS0zLjcsMS4xYy0wLjcsMC0xLjMtMC4xLTEuOC0wLjJjLTAuMiwwLjEtMC40LDAuMi0wLjYsMC40Yy0wLjIsMC4yLTAuMywwLjQtMC4zLDAuNyAgYzAsMC42LDAuNSwwLjksMS42LDAuOWgzLjJjMS41LDAsMi41LDAuMywzLjIsMC45UzMxLjcsMjMuOSwzMS43LDI1eiBNMjguOSwyNS40YzAtMC40LTAuMi0wLjctMC41LTAuOWMtMC4zLTAuMi0wLjgtMC4zLTEuNi0wLjMgIGgtNC4xYy0wLjQsMC4zLTAuNiwwLjctMC42LDEuMnMwLjIsMC44LDAuNiwxLjFjMC40LDAuMywxLDAuNCwyLDAuNGgxLjVjMSwwLDEuNy0wLjEsMi4xLTAuNFMyOC45LDI1LjksMjguOSwyNS40eiBNMjUuMywxNy44ICBjMS40LDAsMi4yLTAuNiwyLjItMS44di0wLjRjMC0xLjItMC43LTEuOC0yLjItMS44Yy0xLjQsMC0yLjIsMC42LTIuMiwxLjhWMTZDMjMuMiwxNy4yLDIzLjksMTcuOCwyNS4zLDE3Ljh6IiBjbGFzcz0ic3QwIi8+JiN4YTs8L3N2Zz4=;whiteSpace=wrap;fontColor=#4277BB;" parent="J47Reuz6JDjN8YAeEeK1-3" vertex="1">
          <mxGeometry x="540" y="155" width="60" height="60" as="geometry" />
        </mxCell>
        <mxCell id="J47Reuz6JDjN8YAeEeK1-6" value="Watson Assistant" style="shape=image;verticalLabelPosition=bottom;labelBackgroundColor=default;verticalAlign=top;aspect=fixed;imageAspect=0;image=data:image/svg+xml,PHN2ZyB4bWxucz0iaHR0cDovL3d3dy53My5vcmcvMjAwMC9zdmciIHZpZXdCb3g9IjAgMCAzMiAzMiIgaWQ9IldhdHNvbkFzc2lzdGFudCI+PGRlZnM+PGxpbmVhckdyYWRpZW50IGdyYWRpZW50VW5pdHM9InVzZXJTcGFjZU9uVXNlIiBncmFkaWVudFRyYW5zZm9ybT0idHJhbnNsYXRlKDE1My45MDMgNDkuNSkiIHkyPSItMjQuNSIgeDI9Ii0xMzguOTAzIiB5MT0iLTI0LjUiIHgxPSItMTQ4LjkwMyIgaWQ9InNuM3Bwd3RwMmEiPjxzdG9wIHN0b3Atb3BhY2l0eT0iMCIgb2Zmc2V0PSIwIi8+PHN0b3Agb2Zmc2V0PSIuODMiLz48L2xpbmVhckdyYWRpZW50PjxsaW5lYXJHcmFkaWVudCBncmFkaWVudFVuaXRzPSJ1c2VyU3BhY2VPblVzZSIgZ3JhZGllbnRUcmFuc2Zvcm09InRyYW5zbGF0ZSg0Mi41NTMgNTY1LjQ0NykiIHkyPSItNTQ4LjQ0NyIgeDI9Ii0xMi41IiB5MT0iLTU0OC40NDciIHgxPSItMjIuNSIgaWQ9ImVlNWRsOWpmeGIiPjxzdG9wIHN0b3Atb3BhY2l0eT0iMCIgb2Zmc2V0PSIwIi8+PHN0b3Agb2Zmc2V0PSIuNiIvPjwvbGluZWFyR3JhZGllbnQ+PGxpbmVhckdyYWRpZW50IGdyYWRpZW50VW5pdHM9InVzZXJTcGFjZU9uVXNlIiB5Mj0iMCIgeDI9IjMyIiB5MT0iMzIiIHgxPSIwIiBpZD0iMnMwZWt6OTkyZCI+PHN0b3Agc3RvcC1jb2xvcj0iI2E1NmVmZiIgb2Zmc2V0PSIuMSIvPjxzdG9wIHN0b3AtY29sb3I9IiMwZjYyZmUiIG9mZnNldD0iLjkiLz48L2xpbmVhckdyYWRpZW50PjxtYXNrIG1hc2tVbml0cz0idXNlclNwYWNlT25Vc2UiIGhlaWdodD0iMzIiIHdpZHRoPSIzMiIgaWQ9ImliY2U3d211M2MiPjxwYXRoIHN0eWxlPSJmaWxsOiNmZmYiIGQ9Ik0xNCAyNkg2LjAwNUE0LjAxIDQuMDEgMCAwIDEgMiAyMS45OTV2LTkuOTk0QTQuMDA1IDQuMDA1IDAgMCAxIDYuMDAxIDhIMTR2Mkg2LjAwMUEyLjAwMyAyLjAwMyAwIDAgMCA0IDEyLjAwMXY5Ljk5M2MwIDEuMTA2Ljg5OSAyLjAwNSAyLjAwNSAyLjAwNUgxNHYyeiIvPjxwYXRoIGRhdGEtbmFtZT0iR3JhZGllbnRzIChibGFjaykiIGlkPSJHcmFkaWVudHNfX2JsYWNrXyIgZD0iTTUgMjNoMTB2NEg1eiIgc3R5bGU9ImZpbGw6dXJsKCNzbjNwcHd0cDJhKSIvPjxwYXRoIHN0eWxlPSJmaWxsOiNmZmYiIGQ9Im0xNC42OSAzMS0xLjczMi0xIDMuNDY1LTZoNS41NzJBMi4wMDcgMi4wMDcgMCAwIDAgMjQgMjEuOTk1di04Ljk5MmgydjguOTkyQTQuMDEgNC4wMSAwIDAgMSAyMS45OTUgMjZoLTQuNDE3bC0yLjg4NyA1eiIvPjxwYXRoIGQ9Ik0yMC4wNTMgMTVoMTB2NGgtMTB6IiBzdHlsZT0iZmlsbDp1cmwoI2VlNWRsOWpmeGIpIiB0cmFuc2Zvcm09InJvdGF0ZSgtOTAgMjUuMDUzIDE3KSIvPjwvbWFzaz48L2RlZnM+PGcgc3R5bGU9Im1hc2s6dXJsKCNpYmNlN3dtdTNjKSI+PHBhdGggZD0iTTAgMGgzMnYzMkgweiIgc3R5bGU9ImZpbGw6dXJsKCMyczBla3o5OTJkKSIvPjwvZz48Y2lyY2xlIHN0eWxlPSJmaWxsOiMwMDFkNmMiIHI9IjEiIGN5PSIxNyIgY3g9IjEwIi8+PGNpcmNsZSBzdHlsZT0iZmlsbDojMDAxZDZjIiByPSIxIiBjeT0iMTciIGN4PSIxNCIvPjxjaXJjbGUgc3R5bGU9ImZpbGw6IzAwMWQ2YyIgcj0iMSIgY3k9IjE3IiBjeD0iMTgiLz48cGF0aCBzdHlsZT0iZmlsbDojMDAxZDZjIiBkPSJNMjcuOTk5IDJoLTkuOTk4QTIuMDAyIDIuMDAyIDAgMCAwIDE2IDQuMDAxdjUuOTk4YzAgMS4xMDQuODk3IDIuMDAxIDIuMDAxIDIuMDAxaDIuNDIybDEuNzMxIDMgMS43MzItMS0yLjMxLTRoLTMuNTc3VjRoMTB2NmgtM3YyaDIuOTk5YTIuMDAyIDIuMDAyIDAgMCAwIDIuMDAxLTIuMDAxVjQuMDAxQTIuMDAyIDIuMDAyIDAgMCAwIDI3Ljk5OCAyeiIvPjwvc3ZnPg==;fontColor=#4277BB;whiteSpace=wrap;" parent="J47Reuz6JDjN8YAeEeK1-3" vertex="1">
          <mxGeometry x="540" y="300" width="60" height="60" as="geometry" />
        </mxCell>
        <mxCell id="J47Reuz6JDjN8YAeEeK1-10" value="Secrets Manager" style="shape=image;verticalLabelPosition=bottom;labelBackgroundColor=default;verticalAlign=top;aspect=fixed;imageAspect=0;image=data:image/svg+xml,PHN2ZyB4bWxuczp4bGluaz0iaHR0cDovL3d3dy53My5vcmcvMTk5OS94bGluayIgeG1sbnM9Imh0dHA6Ly93d3cudzMub3JnLzIwMDAvc3ZnIiB4bWw6c3BhY2U9InByZXNlcnZlIiBzdHlsZT0iZW5hYmxlLWJhY2tncm91bmQ6bmV3IDAgMCAzMiAzMjsiIHZpZXdCb3g9IjAgMCAzMiAzMiIgeT0iMHB4IiB4PSIwcHgiIGlkPSJDbG91ZFNlY3JldHNNYW5hZ2VyIiB2ZXJzaW9uPSIxLjEiPiYjeGE7PHN0eWxlIHR5cGU9InRleHQvY3NzIj4mI3hhOwkuc3Qwe2ZpbGw6I0ZGRkZGRjtmaWx0ZXI6dXJsKCNBZG9iZV9PcGFjaXR5TWFza0ZpbHRlcik7fSYjeGE7CS5zdDF7ZmlsbDp1cmwoI0dyYWRpZW50c19fYmxhY2tfXzAwMDAwMDM0NzczMTE1OTE4NDk1NzYzOTEwMDAwMDE1ODk5NjAyNTc5MzMxMjA1NTExXyk7fSYjeGE7CS5zdDJ7ZmlsbDojRkZGRkZGO30mI3hhOwkuc3Qze21hc2s6dXJsKCNtYXNrXzAwMDAwMDI1NDMzOTU2MDgyMzU2NDIzODMwMDAwMDA3MzUyNDkxNzM0Mjk2MjQ4MTkyXyk7fSYjeGE7CS5zdDR7ZmlsbDp1cmwoI1NWR0lEXzFfKTt9JiN4YTsJLnN0NXtmaWxsOiMwMDFENkM7fSYjeGE7PC9zdHlsZT4mI3hhOzxkZWZzPiYjeGE7CTxmaWx0ZXIgaGVpZ2h0PSIzMiIgd2lkdGg9IjMyIiB5PSIwIiB4PSIwIiBmaWx0ZXJVbml0cz0idXNlclNwYWNlT25Vc2UiIGlkPSJBZG9iZV9PcGFjaXR5TWFza0ZpbHRlciI+JiN4YTsJCTxmZUNvbG9yTWF0cml4IHZhbHVlcz0iMSAwIDAgMCAwICAwIDEgMCAwIDAgIDAgMCAxIDAgMCAgMCAwIDAgMSAwIiB0eXBlPSJtYXRyaXgiLz4mI3hhOwk8L2ZpbHRlcj4mI3hhOzwvZGVmcz4mI3hhOzxtYXNrIGlkPSJtYXNrXzAwMDAwMDI1NDMzOTU2MDgyMzU2NDIzODMwMDAwMDA3MzUyNDkxNzM0Mjk2MjQ4MTkyXyIgaGVpZ2h0PSIzMiIgd2lkdGg9IjMyIiB5PSIwIiB4PSIwIiBtYXNrVW5pdHM9InVzZXJTcGFjZU9uVXNlIj4mI3hhOwk8cGF0aCBkPSJNMTYsMzBDOC4zLDMwLDIsMjMuNywyLDE2UzguMywyLDE2LDJzMTQsNi4zLDE0LDE0UzIzLjcsMzAsMTYsMzB6IE0xNiw0QzkuNCw0LDQsOS40LDQsMTZzNS40LDEyLDEyLDEyICAgczEyLTUuNCwxMi0xMlMyMi42LDQsMTYsNHoiIGNsYXNzPSJzdDAiLz4mI3hhOwkmI3hhOwkJPGxpbmVhckdyYWRpZW50IGdyYWRpZW50VHJhbnNmb3JtPSJtYXRyaXgoLTAuNDYyMiAxLjA3NyAwLjY0NiAwLjI3NzIgLTE2MDYuMjUzMSAtMjk1NC40NDU4KSIgeTI9IjM4MDEuNDQzNCIgeDI9IjE3OTIuNjcxMSIgeTE9IjM4MDEuNDQzNCIgeDE9IjE3ODAuMzMwMSIgZ3JhZGllbnRVbml0cz0idXNlclNwYWNlT25Vc2UiIGlkPSJHcmFkaWVudHNfX2JsYWNrX18wMDAwMDEwOTAyMDI4NTEyNTg3NTg1NjEwMDAwMDAxNDIwNzg2ODc2NTY4Mzk4NjU5MF8iPiYjeGE7CQk8c3RvcCBzdHlsZT0ic3RvcC1jb2xvcjojMDAwMDAwIiBvZmZzZXQ9IjAuMTc5Ii8+JiN4YTsJCTxzdG9wIHN0eWxlPSJzdG9wLWNvbG9yOiMwMDAwMDA7c3RvcC1vcGFjaXR5OjAiIG9mZnNldD0iMC45NjQiLz4mI3hhOwk8L2xpbmVhckdyYWRpZW50PiYjeGE7CSYjeGE7CQk8cGF0aCBkPSJNMzEuOCwxNy41bC02LDE0bC05LTMuOWw2LTE0TDMxLjgsMTcuNXoiIHN0eWxlPSJmaWxsOnVybCgjR3JhZGllbnRzX19ibGFja19fMDAwMDAxMDkwMjAyODUxMjU4NzU4NTYxMDAwMDAwMTQyMDc4Njg3NjU2ODM5ODY1OTBfKTsiIGlkPSJHcmFkaWVudHNfX2JsYWNrX18wMDAwMDE2MzA3MTk4MjE2OTkxMjI1OTY4MDAwMDAxMDA0OTE4MzM2NDMxODA5NTI4OV8iLz4mI3hhOwk8cGF0aCBkPSJNMjYsMTVoNnYyaC02VjE1eiIgY2xhc3M9InN0MiIvPiYjeGE7PC9tYXNrPiYjeGE7PGcgY2xhc3M9InN0MyI+JiN4YTsJJiN4YTsJCTxsaW5lYXJHcmFkaWVudCBncmFkaWVudFRyYW5zZm9ybT0ibWF0cml4KDEgMCAwIC0xIDAgLTMwKSIgeTI9Ii0zMCIgeDI9IjMyIiB5MT0iLTYyIiB4MT0iLTkuMDk0OTQ3ZS0xMyIgZ3JhZGllbnRVbml0cz0idXNlclNwYWNlT25Vc2UiIGlkPSJTVkdJRF8xXyI+JiN4YTsJCTxzdG9wIHN0eWxlPSJzdG9wLWNvbG9yOiMwOEJEQkEiIG9mZnNldD0iMC4xIi8+JiN4YTsJCTxzdG9wIHN0eWxlPSJzdG9wLWNvbG9yOiMwRjYyRkUiIG9mZnNldD0iMC45Ii8+JiN4YTsJPC9saW5lYXJHcmFkaWVudD4mI3hhOwk8cGF0aCBkPSJNMCwwaDMydjMySDBWMHoiIGNsYXNzPSJzdDQiLz4mI3hhOzwvZz4mI3hhOzxwYXRoIGQ9Ik0yMCwxNmMwLTAuNy0wLjItMS40LTAuNi0ybDMuMy0zLjNsLTEuNC0xLjRMMTgsMTIuNmMtMC42LTAuNC0xLjMtMC42LTItMC42cy0xLjQsMC4yLTIsMC42bC0zLjMtMy4zbC0xLjQsMS40ICBsMy4zLDMuM2MtMC40LDAuNi0wLjYsMS4zLTAuNiwyczAuMiwxLjQsMC42LDJsLTMuMywzLjNsMS40LDEuNGwzLjMtMy4zYzAuNiwwLjQsMS4zLDAuNiwyLDAuNmMwLjcsMCwxLjQtMC4yLDItMC42bDMuMywzLjMgIGwxLjQtMS40TDE5LjQsMThDMTkuOCwxNy40LDIwLDE2LjcsMjAsMTZ6IE0xNiwxOGMtMS4xLDAtMi0wLjktMi0yczAuOS0yLDItMnMyLDAuOSwyLDJTMTcuMSwxOCwxNiwxOHoiIGNsYXNzPSJzdDUiLz4mI3hhOzwvc3ZnPg==;fontColor=#4277BB;whiteSpace=wrap;" parent="J47Reuz6JDjN8YAeEeK1-3" vertex="1">
          <mxGeometry x="540" y="20" width="60" height="60" as="geometry" />
        </mxCell>
        <mxCell id="Hs-L2YIwHRMej71PNs65-2" value="&lt;sub&gt;&lt;img height=&quot;20&quot; width=&quot;20&quot; src=&quot;data:image/png;base64,iVBORw0KGgoAAAANSUhEUgAAABQAAAAUCAYAAACNiR0NAAAAAXNSR0IArs4c6QAAAIRlWElmTU0AKgAAAAgABQESAAMAAAABAAEAAAEaAAUAAAABAAAASgEbAAUAAAABAAAAUgEoAAMAAAABAAIAAIdpAAQAAAABAAAAWgAAAAAAAABIAAAAAQAAAEgAAAABAAOgAQADAAAAAQABAACgAgAEAAAAAQAAABSgAwAEAAAAAQAAABQAAAAAQeed/gAAAAlwSFlzAAALEwAACxMBAJqcGAAAAVlpVFh0WE1MOmNvbS5hZG9iZS54bXAAAAAAADx4OnhtcG1ldGEgeG1sbnM6eD0iYWRvYmU6bnM6bWV0YS8iIHg6eG1wdGs9IlhNUCBDb3JlIDYuMC4wIj4KICAgPHJkZjpSREYgeG1sbnM6cmRmPSJodHRwOi8vd3d3LnczLm9yZy8xOTk5LzAyLzIyLXJkZi1zeW50YXgtbnMjIj4KICAgICAgPHJkZjpEZXNjcmlwdGlvbiByZGY6YWJvdXQ9IiIKICAgICAgICAgICAgeG1sbnM6dGlmZj0iaHR0cDovL25zLmFkb2JlLmNvbS90aWZmLzEuMC8iPgogICAgICAgICA8dGlmZjpPcmllbnRhdGlvbj4xPC90aWZmOk9yaWVudGF0aW9uPgogICAgICA8L3JkZjpEZXNjcmlwdGlvbj4KICAgPC9yZGY6UkRGPgo8L3g6eG1wbWV0YT4KGV7hBwAAA51JREFUOBGdVd1vFFUUP+feuTPd3S4fLbQqIQu0JtJBEt1Gg6RJFT+SGp7MmKiJiS99g4RHIIEBYngiPvg/GNMNDz5oYwTbaDVo3CeyRuIKdKEtsdB0+7Fl5+Mezp1hyyIlUe/kzpx7Pn7n3N+5M4Pwb0dxVAEUn+5dniMAP3q6w/+zILbFIRAnMePMGdafBm8AsPQ+xpzZcgp4TBPtAfbi61FcuhYoYDK46X/5yJBCbXjP7fKfCcGaI4ruIcEsw9nsaLJzPDYAxUtA8e/BtO9aCQIRDk9Oyu3zw+I23JYOODITSBHEa2ro4x11H0/EdgFjLswLa6cn/plVFfwLjPyO0SeA707Vttxf7ds379xyMyQHSMcDTaFfkGrzjqmLi18BnP9QqHMSm3E+Yb3/iAPV7hD6uxRUjza5zk4g3nQL8E5mfmXbam8FSU5TjD+A0FsAsTMKGp0duc4bAF6HjjWrdEpytdvwqmHzqDYgoPlCSuhLKiwPDoasXng4jctjI/fqp73BXAgoRcq5CwIqDFA/mlTFzobLJFnKoQlnHn3W+lzG69/OFkWkn6VQKCeXuTn+1ui0vXuf8QmMK1R8frJ3FZrJGoErbqswUfLNgB2c+iOPK+FlpmQT2haGQcQclj5C60Wg+7AVXN/OatXdqIdhVinVmD45x6EZngwKXLoZD7tsRLEkO0CQw+16L/61orbu3/YBwPEsBToCy/pC1WktWGrO2ArnI4hm7YIfosx9wvtdMfEpJ0ZqG29cutEgLQ5PvF243FJn+s4eDBairq5id8bK2urvn2fqVl7xZolIcHot/gxqpyoJh4euXO3VAfYLEDuJLJfpzWCUVl/8jVR5EMO1v079ZMBf+4x2RovQ8/UQluO7rXTrz/TsYEg5tPA55s1l0yvClkCKEk7yy5NJ9/qPfOOYsKVrtQMrd26NGNn1xmwY9i1IPhyeZBUlFV4a2n+dF2aWPCK5MFVd5qYlANt7eoTPm/plvArVz9lDyT5J+DJL4I15UYUbaeTWaJ0jNo6ZDNC4WtuE/JahokWzLrluYLo/PvJ8ckRQQg4k7Ta2SunJHqyfQ9fzqMRO9XodHEtlUccXD/14bQa0tPnt4S8MH2qNq9yEAzzLBpDTpY+2+4ZdfvNKZZSB9jKQZiCgiN86Los7b4AFhPq770d2jYPPRv/xLbdh/0eRz+5GEetbbjcOT0xYy/n8kwFmo/wX2HO9qEtMdHtMS34AxLFtePr+mEwAAAAASUVORK5CYII=&quot;&gt;&lt;/sub&gt;&amp;nbsp;Code Engine" style="fontStyle=0;verticalAlign=top;align=left;spacingTop=-2;fillColor=none;rounded=0;whiteSpace=wrap;html=1;strokeColor=#919191;strokeWidth=2;container=1;collapsible=0;expand=0;recursiveResize=0;shadow=0;sketch=0;" parent="J47Reuz6JDjN8YAeEeK1-3" vertex="1">
          <mxGeometry x="40" y="75" width="320" height="230" as="geometry" />
        </mxCell>
        <mxCell id="Hs-L2YIwHRMej71PNs65-3" value="REST API" style="aspect=fixed;perimeter=ellipsePerimeter;html=1;align=center;shadow=0;dashed=0;fontColor=#4277BB;labelBackgroundColor=#ffffff;fontSize=12;spacingTop=3;image;image=img/lib/ibm/applications/enterprise_applications.svg;sketch=0;strokeColor=#0072C3;" parent="Hs-L2YIwHRMej71PNs65-2" vertex="1">
          <mxGeometry x="210" y="80" width="60" height="60" as="geometry" />
        </mxCell>
        <mxCell id="Hs-L2YIwHRMej71PNs65-5" style="edgeStyle=orthogonalEdgeStyle;shape=connector;rounded=0;orthogonalLoop=1;jettySize=auto;html=1;labelBackgroundColor=default;strokeColor=#0072C3;strokeWidth=2;fontFamily=Helvetica;fontSize=11;fontColor=#4277BB;endArrow=none;endFill=0;" parent="Hs-L2YIwHRMej71PNs65-2" source="Hs-L2YIwHRMej71PNs65-4" target="Hs-L2YIwHRMej71PNs65-3" edge="1">
          <mxGeometry relative="1" as="geometry" />
        </mxCell>
        <mxCell id="Hs-L2YIwHRMej71PNs65-4" value="Front-end (optional)" style="aspect=fixed;perimeter=ellipsePerimeter;html=1;align=center;shadow=0;dashed=0;fontColor=#4277BB;labelBackgroundColor=#ffffff;fontSize=12;spacingTop=3;image;image=img/lib/ibm/applications/enterprise_applications.svg;sketch=0;strokeColor=#0072C3;whiteSpace=wrap;" parent="Hs-L2YIwHRMej71PNs65-2" vertex="1">
          <mxGeometry x="50" y="80" width="60" height="60" as="geometry" />
        </mxCell>
        <mxCell id="Hs-L2YIwHRMej71PNs65-8" style="edgeStyle=orthogonalEdgeStyle;shape=connector;rounded=0;orthogonalLoop=1;jettySize=auto;html=1;entryX=0;entryY=0.5;entryDx=0;entryDy=0;labelBackgroundColor=default;strokeColor=#0072C3;strokeWidth=2;fontFamily=Helvetica;fontSize=11;fontColor=#4277BB;endArrow=none;endFill=0;exitX=1;exitY=0.5;exitDx=0;exitDy=0;" parent="J47Reuz6JDjN8YAeEeK1-3" source="Hs-L2YIwHRMej71PNs65-3" target="J47Reuz6JDjN8YAeEeK1-6" edge="1">
          <mxGeometry relative="1" as="geometry" />
        </mxCell>
        <mxCell id="V_uvqgc2M2WiMa2EkUFn-7" value="Virtual Assistant&lt;div&gt;integration (custom)&lt;/div&gt;" style="edgeLabel;html=1;align=center;verticalAlign=middle;resizable=0;points=[];fontFamily=Helvetica;fontSize=11;fontColor=#4277BB;labelBackgroundColor=default;" vertex="1" connectable="0" parent="Hs-L2YIwHRMej71PNs65-8">
          <mxGeometry x="0.6853" y="3" relative="1" as="geometry">
            <mxPoint x="9" y="-22" as="offset" />
          </mxGeometry>
        </mxCell>
        <mxCell id="V_uvqgc2M2WiMa2EkUFn-0" value="IBM Container Registry" style="shape=image;verticalLabelPosition=bottom;labelBackgroundColor=default;verticalAlign=top;aspect=fixed;imageAspect=0;image=data:image/svg+xml,PHN2ZyB4bWxuczp4bGluaz0iaHR0cDovL3d3dy53My5vcmcvMTk5OS94bGluayIgeG1sbnM9Imh0dHA6Ly93d3cudzMub3JnLzIwMDAvc3ZnIiB2aWV3Qm94PSIwIDAgMzIgMzIiPiYjeGE7ICA8ZGVmcz4mI3hhOyAgICA8bGluZWFyR3JhZGllbnQgZ3JhZGllbnRVbml0cz0idXNlclNwYWNlT25Vc2UiIGdyYWRpZW50VHJhbnNmb3JtPSJ0cmFuc2xhdGUoLTEwNzcuNzU2IDMxLjQ1Mykgcm90YXRlKDQ1KSIgeTI9Ii03NzkuNzMzIiB4Mj0iNzc1LjU1NyIgeTE9Ii03NzAuNTQiIHgxPSI3NjYuMzY1IiBpZD0iYjRjYzM2ZjMtODdhYi00OGIzLTg4N2UtOWMxYWM4NzQyOWU3Ij4mI3hhOyAgICAgIDxzdG9wIHN0b3Atb3BhY2l0eT0iMCIgb2Zmc2V0PSIwLjAyNCIvPiYjeGE7ICAgICAgPHN0b3Agb2Zmc2V0PSIwLjY0Ii8+JiN4YTsgICAgPC9saW5lYXJHcmFkaWVudD4mI3hhOyAgICA8bWFzayBtYXNrVW5pdHM9InVzZXJTcGFjZU9uVXNlIiBoZWlnaHQ9IjMyIiB3aWR0aD0iMzIiIHk9IjAiIHg9IjAiIGlkPSJhZWY0ZDNiMy02Mzk2LTQ4NjYtYjYyMC04ZGY4Y2JlODhkNTAiPiYjeGE7ICAgICAgPHBhdGggZmlsbD0iI2ZmZiIgZD0iTTIxLDMwSDRhMiwyLDAsMCwxLTItMlY0QTIsMiwwLDAsMSw0LDJIMjhhMiwyLDAsMCwxLDIsMlYxNkgyOFY0SDRWMjhIMjFaIi8+JiN4YTsgICAgICA8cmVjdCBmaWxsPSJ1cmwoI2I0Y2MzNmYzLTg3YWItNDhiMy04ODdlLTljMWFjODc0MjllNykiIGhlaWdodD0iNSIgd2lkdGg9IjEzIiB5PSIyNiIgeD0iOSIvPiYjeGE7ICAgIDwvbWFzaz4mI3hhOyAgICA8bGluZWFyR3JhZGllbnQgZ3JhZGllbnRVbml0cz0idXNlclNwYWNlT25Vc2UiIHgyPSIzMiIgeTE9IjMyIiBpZD0iYTk5N2EwODAtNWY1OC00ZDA0LWFhYjktYmYxNTAzNTZlMzcxIj4mI3hhOyAgICAgIDxzdG9wIHN0b3AtY29sb3I9IiMwOGJkYmEiIG9mZnNldD0iMC4xIi8+JiN4YTsgICAgICA8c3RvcCBzdG9wLWNvbG9yPSIjMGY2MmZlIiBvZmZzZXQ9IjAuOSIvPiYjeGE7ICAgIDwvbGluZWFyR3JhZGllbnQ+JiN4YTsgIDwvZGVmcz4mI3hhOyAgPGcgZGF0YS1uYW1lPSJMYXllciAyIiBpZD0iYWVkMGEzZDUtZjUzMi00YmZjLWJmNTktYTRkMjAwYWRkY2NlIj4mI3hhOyAgICA8ZyBkYXRhLW5hbWU9IkJ1aWxkIGljb24gaGVyZSIgaWQ9ImEwOTUwOTMyLWVjMDAtNDYxMS05YjIwLTFjMWJhMjFiMmNhNSI+JiN4YTsgICAgICA8Zz4mI3hhOyAgICAgICAgPGcgbWFzaz0idXJsKCNhZWY0ZDNiMy02Mzk2LTQ4NjYtYjYyMC04ZGY4Y2JlODhkNTApIj4mI3hhOyAgICAgICAgICA8cmVjdCBmaWxsPSJ1cmwoI2E5OTdhMDgwLTVmNTgtNGQwNC1hYWI5LWJmMTUwMzU2ZTM3MSkiIGhlaWdodD0iMzIiIHdpZHRoPSIzMiIvPiYjeGE7ICAgICAgICA8L2c+JiN4YTsgICAgICAgIDxwYXRoIGZpbGw9IiMwMDFkNmMiIGQ9Ik0yOCwzMEgyM2EyLDIsMCwwLDEtMi0yVjIzYTIsMiwwLDAsMSwyLTJoNWEyLDIsMCwwLDEsMiwydjVBMiwyLDAsMCwxLDI4LDMwWm0tNS03aDBsMCw1aDVWMjNaIi8+JiN4YTsgICAgICAgIDxwYXRoIGZpbGw9IiMwMDFkNmMiIGQ9Ik0xNiwyM0gxMWEyLDIsMCwwLDEtMi0yVjExYTIsMiwwLDAsMSwyLTJIMjFhMiwyLDAsMCwxLDIsMnY1SDIxVjExSDExVjIxaDVaIi8+JiN4YTsgICAgICA8L2c+JiN4YTsgICAgPC9nPiYjeGE7ICA8L2c+JiN4YTs8L3N2Zz4=;fontColor=#4476BB;" vertex="1" parent="J47Reuz6JDjN8YAeEeK1-3">
          <mxGeometry x="250" y="380" width="60" height="60" as="geometry" />
        </mxCell>
        <mxCell id="V_uvqgc2M2WiMa2EkUFn-1" style="edgeStyle=orthogonalEdgeStyle;rounded=0;orthogonalLoop=1;jettySize=auto;html=1;entryX=0;entryY=0.5;entryDx=0;entryDy=0;strokeColor=#0072C3;strokeWidth=2;align=center;verticalAlign=middle;fontFamily=Helvetica;fontSize=11;fontColor=#4277BB;labelBackgroundColor=default;endArrow=none;endFill=0;" edge="1" parent="J47Reuz6JDjN8YAeEeK1-3" source="Hs-L2YIwHRMej71PNs65-3" target="J47Reuz6JDjN8YAeEeK1-10">
          <mxGeometry relative="1" as="geometry" />
        </mxCell>
        <mxCell id="V_uvqgc2M2WiMa2EkUFn-5" value="Secret storage" style="edgeLabel;html=1;align=center;verticalAlign=middle;resizable=0;points=[];fontFamily=Helvetica;fontSize=11;fontColor=#4277BB;labelBackgroundColor=default;" vertex="1" connectable="0" parent="V_uvqgc2M2WiMa2EkUFn-1">
          <mxGeometry x="0.5836" y="3" relative="1" as="geometry">
            <mxPoint x="26" y="-17" as="offset" />
          </mxGeometry>
        </mxCell>
        <mxCell id="V_uvqgc2M2WiMa2EkUFn-2" style="edgeStyle=orthogonalEdgeStyle;rounded=0;orthogonalLoop=1;jettySize=auto;html=1;strokeColor=#0072C3;strokeWidth=2;align=center;verticalAlign=middle;fontFamily=Helvetica;fontSize=11;fontColor=#4277BB;labelBackgroundColor=default;endArrow=none;endFill=0;" edge="1" parent="J47Reuz6JDjN8YAeEeK1-3" source="Hs-L2YIwHRMej71PNs65-3" target="J47Reuz6JDjN8YAeEeK1-4">
          <mxGeometry relative="1" as="geometry" />
        </mxCell>
        <mxCell id="V_uvqgc2M2WiMa2EkUFn-6" value="Connection to&lt;div&gt;source data&lt;/div&gt;" style="edgeLabel;html=1;align=center;verticalAlign=middle;resizable=0;points=[];fontFamily=Helvetica;fontSize=11;fontColor=#4277BB;labelBackgroundColor=default;" vertex="1" connectable="0" parent="V_uvqgc2M2WiMa2EkUFn-2">
          <mxGeometry x="0.4696" y="5" relative="1" as="geometry">
            <mxPoint y="-20" as="offset" />
          </mxGeometry>
        </mxCell>
        <mxCell id="V_uvqgc2M2WiMa2EkUFn-3" style="edgeStyle=orthogonalEdgeStyle;rounded=0;orthogonalLoop=1;jettySize=auto;html=1;strokeColor=#0072C3;strokeWidth=2;align=center;verticalAlign=middle;fontFamily=Helvetica;fontSize=11;fontColor=#4277BB;labelBackgroundColor=default;endArrow=none;endFill=0;dashed=1;" edge="1" parent="J47Reuz6JDjN8YAeEeK1-3" source="Hs-L2YIwHRMej71PNs65-3" target="V_uvqgc2M2WiMa2EkUFn-0">
          <mxGeometry relative="1" as="geometry" />
        </mxCell>
        <mxCell id="V_uvqgc2M2WiMa2EkUFn-4" value="Deployment strategy&lt;div&gt;(image or source code)&lt;/div&gt;" style="edgeLabel;html=1;align=center;verticalAlign=middle;resizable=0;points=[];fontFamily=Helvetica;fontSize=11;fontColor=#4277BB;labelBackgroundColor=default;" vertex="1" connectable="0" parent="V_uvqgc2M2WiMa2EkUFn-3">
          <mxGeometry x="0.2727" y="-1" relative="1" as="geometry">
            <mxPoint x="61" y="30" as="offset" />
          </mxGeometry>
        </mxCell>
        <mxCell id="J47Reuz6JDjN8YAeEeK1-11" value="Public Network" style="shape=mxgraph.ibm.box;prType=public;fontStyle=0;verticalAlign=top;align=left;spacingLeft=32;spacingTop=4;fillColor=none;rounded=0;whiteSpace=wrap;html=1;strokeColor=#4376BB;strokeWidth=3;dashed=0;container=1;spacing=-4;collapsible=0;expand=0;recursiveResize=0;fontColor=#4277BB;" parent="J47Reuz6JDjN8YAeEeK1-1" vertex="1">
          <mxGeometry x="240" y="120" width="160" height="520" as="geometry" />
        </mxCell>
        <mxCell id="J47Reuz6JDjN8YAeEeK1-12" value="End-User" style="aspect=fixed;perimeter=ellipsePerimeter;html=1;align=center;shadow=0;dashed=0;fontColor=#4277BB;labelBackgroundColor=#ffffff;fontSize=12;spacingTop=3;image;image=img/lib/ibm/users/user.svg;" parent="J47Reuz6JDjN8YAeEeK1-11" vertex="1">
          <mxGeometry x="50" y="185" width="60" height="60" as="geometry" />
        </mxCell>
        <mxCell id="Hs-L2YIwHRMej71PNs65-6" style="edgeStyle=orthogonalEdgeStyle;shape=connector;rounded=0;orthogonalLoop=1;jettySize=auto;html=1;labelBackgroundColor=default;strokeColor=#0072C3;strokeWidth=2;fontFamily=Helvetica;fontSize=11;fontColor=#4277BB;endArrow=none;endFill=0;" parent="J47Reuz6JDjN8YAeEeK1-1" source="J47Reuz6JDjN8YAeEeK1-12" target="Hs-L2YIwHRMej71PNs65-4" edge="1">
          <mxGeometry relative="1" as="geometry" />
        </mxCell>
      </root>
    </mxGraphModel>
  </diagram>
  <diagram name="no-front" id="7Y70ylBKJqCcrQVZU-RD">
    <mxGraphModel dx="1026" dy="674" grid="1" gridSize="10" guides="1" tooltips="1" connect="1" arrows="1" fold="1" page="1" pageScale="1" pageWidth="1200" pageHeight="1600" math="0" shadow="0">
      <root>
        <mxCell id="0" />
        <mxCell id="1" parent="0" />
        <mxCell id="9PhllvtnjBpvdxcWGEBJ-1" value="IBM Cloud" style="shape=mxgraph.ibm.box;prType=cloud;fontStyle=0;verticalAlign=top;align=left;spacingLeft=32;spacingTop=4;fillColor=none;rounded=0;whiteSpace=wrap;html=1;strokeColor=#4376BB;strokeWidth=3;dashed=0;container=1;spacing=-4;collapsible=0;expand=0;recursiveResize=0;" parent="1" vertex="1">
          <mxGeometry x="400" y="120" width="560" height="480" as="geometry" />
        </mxCell>
        <mxCell id="9PhllvtnjBpvdxcWGEBJ-3" value="Dallas" style="shape=mxgraph.ibm.box;prType=region;fontStyle=0;verticalAlign=top;align=left;spacingLeft=32;spacingTop=4;fillColor=none;rounded=0;whiteSpace=wrap;html=1;strokeColor=#919191;strokeWidth=2;dashed=0;container=1;spacing=-4;collapsible=0;expand=0;recursiveResize=0;" parent="1" vertex="1">
          <mxGeometry x="430" y="150" width="500" height="420" as="geometry" />
        </mxCell>
        <mxCell id="9PhllvtnjBpvdxcWGEBJ-4" value="Databases for MongoDB" style="shape=image;verticalLabelPosition=bottom;labelBackgroundColor=default;verticalAlign=top;aspect=fixed;imageAspect=0;image=data:image/svg+xml,PHN2ZyB4bWxuczp4bGluaz0iaHR0cDovL3d3dy53My5vcmcvMTk5OS94bGluayIgeG1sbnM9Imh0dHA6Ly93d3cudzMub3JnLzIwMDAvc3ZnIiB4bWw6c3BhY2U9InByZXNlcnZlIiBzdHlsZT0iZW5hYmxlLWJhY2tncm91bmQ6bmV3IDAgMCAzMiAzMjsiIHZpZXdCb3g9IjAgMCAzMiAzMiIgeT0iMHB4IiB4PSIwcHgiIGlkPSJQYWRkaW5nIiB2ZXJzaW9uPSIxLjEiPiYjeGE7PHN0eWxlIHR5cGU9InRleHQvY3NzIj4mI3hhOwkuc3Qwe2ZpbGw6dXJsKCNTVkdJRF8xXyk7fSYjeGE7PC9zdHlsZT4mI3hhOzxsaW5lYXJHcmFkaWVudCBncmFkaWVudFRyYW5zZm9ybT0ibWF0cml4KDEgMCAwIC0xIDAgMzIpIiB5Mj0iMjkuODA2NyIgeDI9IjMyLjAyNjQiIHkxPSItMC40OTkzIiB4MT0iMS43MjAzIiBncmFkaWVudFVuaXRzPSJ1c2VyU3BhY2VPblVzZSIgaWQ9IlNWR0lEXzFfIj4mI3hhOwk8c3RvcCBzdHlsZT0ic3RvcC1jb2xvcjojMDA5RDlBIiBvZmZzZXQ9IjAuMSIvPiYjeGE7CTxzdG9wIHN0eWxlPSJzdG9wLWNvbG9yOiMyNEExNDgiIG9mZnNldD0iMC45Ii8+JiN4YTs8L2xpbmVhckdyYWRpZW50PiYjeGE7PHBhdGggZD0iTTE0LjMsMTIuN2wtNC42LDguNGwtNC42LTguN1YyNEgyLjJWNy45aDMuNGw0LjIsNy45bDQuMS03LjloMy4zVjI0aC0yLjlWMTIuN0wxNC4zLDEyLjd6IE0zMS43LDI1ICBjMCwwLjYtMC4xLDEuMi0wLjMsMS43Yy0wLjIsMC41LTAuNiwwLjktMS4xLDEuMmMtMC41LDAuMy0xLjIsMC42LTIuMSwwLjhjLTAuOSwwLjItMS43LDAuMi0yLjgsMC4yYy0xLDAtMS45LTAuMS0yLjYtMC4yICBzLTEuMi0wLjItMS43LTAuNWMtMC41LTAuMy0wLjgtMC42LTEtMXMtMC4zLTAuOC0wLjMtMS4yYzAtMC43LDAuMi0xLjIsMC42LTEuNnMwLjktMC42LDEuNi0wLjd2LTAuM2MtMC41LTAuMS0wLjktMC40LTEuMS0wLjcgIGMtMC4zLTAuNC0wLjQtMC44LTAuNC0xLjNjMC0wLjMsMC4xLTAuNiwwLjItMC44YzAuMS0wLjIsMC4yLTAuNCwwLjQtMC42czAuNS0wLjQsMC44LTAuNXMwLjUtMC4xLDAuOC0wLjJ2LTAuMSAgYy0wLjctMC4zLTEuMy0wLjgtMS42LTEuNHMtMC41LTEuMy0wLjUtMi4xYzAtMS4yLDAuNC0yLjIsMS4zLTNjMC44LTAuNywyLjEtMS4xLDMuNy0xLjFjMC40LDAsMC44LDAsMS4yLDAuMSAgYzAuNSwwLjEsMC42LDAuMSwwLjksMC4ydi0wLjRjMC0xLjIsMC42LTEuNywxLjctMS43SDMxdjIuM2gtMi42djAuM2MwLjYsMC40LDEuMSwwLjgsMS40LDEuNGMwLjMsMC42LDAuNSwxLjIsMC41LDIgIGMwLDEuMi0wLjQsMi4yLTEuMywyLjljLTAuOCwwLjctMi4xLDEuMS0zLjcsMS4xYy0wLjcsMC0xLjMtMC4xLTEuOC0wLjJjLTAuMiwwLjEtMC40LDAuMi0wLjYsMC40Yy0wLjIsMC4yLTAuMywwLjQtMC4zLDAuNyAgYzAsMC42LDAuNSwwLjksMS42LDAuOWgzLjJjMS41LDAsMi41LDAuMywzLjIsMC45UzMxLjcsMjMuOSwzMS43LDI1eiBNMjguOSwyNS40YzAtMC40LTAuMi0wLjctMC41LTAuOWMtMC4zLTAuMi0wLjgtMC4zLTEuNi0wLjMgIGgtNC4xYy0wLjQsMC4zLTAuNiwwLjctMC42LDEuMnMwLjIsMC44LDAuNiwxLjFjMC40LDAuMywxLDAuNCwyLDAuNGgxLjVjMSwwLDEuNy0wLjEsMi4xLTAuNFMyOC45LDI1LjksMjguOSwyNS40eiBNMjUuMywxNy44ICBjMS40LDAsMi4yLTAuNiwyLjItMS44di0wLjRjMC0xLjItMC43LTEuOC0yLjItMS44Yy0xLjQsMC0yLjIsMC42LTIuMiwxLjhWMTZDMjMuMiwxNy4yLDIzLjksMTcuOCwyNS4zLDE3Ljh6IiBjbGFzcz0ic3QwIi8+JiN4YTs8L3N2Zz4=;whiteSpace=wrap;fontColor=#4277BB;" parent="9PhllvtnjBpvdxcWGEBJ-3" vertex="1">
          <mxGeometry x="370" y="180" width="60" height="60" as="geometry" />
        </mxCell>
        <mxCell id="9PhllvtnjBpvdxcWGEBJ-13" style="edgeStyle=orthogonalEdgeStyle;shape=connector;rounded=0;orthogonalLoop=1;jettySize=auto;html=1;labelBackgroundColor=default;strokeColor=#0072C3;strokeWidth=2;fontFamily=Helvetica;fontSize=11;fontColor=#4277BB;endArrow=none;endFill=0;" parent="9PhllvtnjBpvdxcWGEBJ-3" source="9PhllvtnjBpvdxcWGEBJ-7" target="9PhllvtnjBpvdxcWGEBJ-6" edge="1">
          <mxGeometry relative="1" as="geometry" />
        </mxCell>
        <mxCell id="9PhllvtnjBpvdxcWGEBJ-7" value="Watson Assistant" style="shape=image;verticalLabelPosition=bottom;labelBackgroundColor=default;verticalAlign=top;aspect=fixed;imageAspect=0;image=data:image/svg+xml,PHN2ZyB4bWxucz0iaHR0cDovL3d3dy53My5vcmcvMjAwMC9zdmciIHZpZXdCb3g9IjAgMCAzMiAzMiIgaWQ9IldhdHNvbkFzc2lzdGFudCI+PGRlZnM+PGxpbmVhckdyYWRpZW50IGdyYWRpZW50VW5pdHM9InVzZXJTcGFjZU9uVXNlIiBncmFkaWVudFRyYW5zZm9ybT0idHJhbnNsYXRlKDE1My45MDMgNDkuNSkiIHkyPSItMjQuNSIgeDI9Ii0xMzguOTAzIiB5MT0iLTI0LjUiIHgxPSItMTQ4LjkwMyIgaWQ9InNuM3Bwd3RwMmEiPjxzdG9wIHN0b3Atb3BhY2l0eT0iMCIgb2Zmc2V0PSIwIi8+PHN0b3Agb2Zmc2V0PSIuODMiLz48L2xpbmVhckdyYWRpZW50PjxsaW5lYXJHcmFkaWVudCBncmFkaWVudFVuaXRzPSJ1c2VyU3BhY2VPblVzZSIgZ3JhZGllbnRUcmFuc2Zvcm09InRyYW5zbGF0ZSg0Mi41NTMgNTY1LjQ0NykiIHkyPSItNTQ4LjQ0NyIgeDI9Ii0xMi41IiB5MT0iLTU0OC40NDciIHgxPSItMjIuNSIgaWQ9ImVlNWRsOWpmeGIiPjxzdG9wIHN0b3Atb3BhY2l0eT0iMCIgb2Zmc2V0PSIwIi8+PHN0b3Agb2Zmc2V0PSIuNiIvPjwvbGluZWFyR3JhZGllbnQ+PGxpbmVhckdyYWRpZW50IGdyYWRpZW50VW5pdHM9InVzZXJTcGFjZU9uVXNlIiB5Mj0iMCIgeDI9IjMyIiB5MT0iMzIiIHgxPSIwIiBpZD0iMnMwZWt6OTkyZCI+PHN0b3Agc3RvcC1jb2xvcj0iI2E1NmVmZiIgb2Zmc2V0PSIuMSIvPjxzdG9wIHN0b3AtY29sb3I9IiMwZjYyZmUiIG9mZnNldD0iLjkiLz48L2xpbmVhckdyYWRpZW50PjxtYXNrIG1hc2tVbml0cz0idXNlclNwYWNlT25Vc2UiIGhlaWdodD0iMzIiIHdpZHRoPSIzMiIgaWQ9ImliY2U3d211M2MiPjxwYXRoIHN0eWxlPSJmaWxsOiNmZmYiIGQ9Ik0xNCAyNkg2LjAwNUE0LjAxIDQuMDEgMCAwIDEgMiAyMS45OTV2LTkuOTk0QTQuMDA1IDQuMDA1IDAgMCAxIDYuMDAxIDhIMTR2Mkg2LjAwMUEyLjAwMyAyLjAwMyAwIDAgMCA0IDEyLjAwMXY5Ljk5M2MwIDEuMTA2Ljg5OSAyLjAwNSAyLjAwNSAyLjAwNUgxNHYyeiIvPjxwYXRoIGRhdGEtbmFtZT0iR3JhZGllbnRzIChibGFjaykiIGlkPSJHcmFkaWVudHNfX2JsYWNrXyIgZD0iTTUgMjNoMTB2NEg1eiIgc3R5bGU9ImZpbGw6dXJsKCNzbjNwcHd0cDJhKSIvPjxwYXRoIHN0eWxlPSJmaWxsOiNmZmYiIGQ9Im0xNC42OSAzMS0xLjczMi0xIDMuNDY1LTZoNS41NzJBMi4wMDcgMi4wMDcgMCAwIDAgMjQgMjEuOTk1di04Ljk5MmgydjguOTkyQTQuMDEgNC4wMSAwIDAgMSAyMS45OTUgMjZoLTQuNDE3bC0yLjg4NyA1eiIvPjxwYXRoIGQ9Ik0yMC4wNTMgMTVoMTB2NGgtMTB6IiBzdHlsZT0iZmlsbDp1cmwoI2VlNWRsOWpmeGIpIiB0cmFuc2Zvcm09InJvdGF0ZSgtOTAgMjUuMDUzIDE3KSIvPjwvbWFzaz48L2RlZnM+PGcgc3R5bGU9Im1hc2s6dXJsKCNpYmNlN3dtdTNjKSI+PHBhdGggZD0iTTAgMGgzMnYzMkgweiIgc3R5bGU9ImZpbGw6dXJsKCMyczBla3o5OTJkKSIvPjwvZz48Y2lyY2xlIHN0eWxlPSJmaWxsOiMwMDFkNmMiIHI9IjEiIGN5PSIxNyIgY3g9IjEwIi8+PGNpcmNsZSBzdHlsZT0iZmlsbDojMDAxZDZjIiByPSIxIiBjeT0iMTciIGN4PSIxNCIvPjxjaXJjbGUgc3R5bGU9ImZpbGw6IzAwMWQ2YyIgcj0iMSIgY3k9IjE3IiBjeD0iMTgiLz48cGF0aCBzdHlsZT0iZmlsbDojMDAxZDZjIiBkPSJNMjcuOTk5IDJoLTkuOTk4QTIuMDAyIDIuMDAyIDAgMCAwIDE2IDQuMDAxdjUuOTk4YzAgMS4xMDQuODk3IDIuMDAxIDIuMDAxIDIuMDAxaDIuNDIybDEuNzMxIDMgMS43MzItMS0yLjMxLTRoLTMuNTc3VjRoMTB2NmgtM3YyaDIuOTk5YTIuMDAyIDIuMDAyIDAgMCAwIDIuMDAxLTIuMDAxVjQuMDAxQTIuMDAyIDIuMDAyIDAgMCAwIDI3Ljk5OCAyeiIvPjwvc3ZnPg==;fontColor=#4277BB;whiteSpace=wrap;" parent="9PhllvtnjBpvdxcWGEBJ-3" vertex="1">
          <mxGeometry x="90" y="180" width="60" height="60" as="geometry" />
        </mxCell>
        <mxCell id="9PhllvtnjBpvdxcWGEBJ-12" style="edgeStyle=orthogonalEdgeStyle;rounded=0;orthogonalLoop=1;jettySize=auto;html=1;entryX=0;entryY=0.5;entryDx=0;entryDy=0;fontColor=#4277BB;strokeColor=#0072C3;strokeWidth=2;endArrow=none;endFill=0;" parent="9PhllvtnjBpvdxcWGEBJ-3" source="9PhllvtnjBpvdxcWGEBJ-6" target="9PhllvtnjBpvdxcWGEBJ-4" edge="1">
          <mxGeometry relative="1" as="geometry" />
        </mxCell>
        <mxCell id="mBXOT76YMNYvzBuWMiyg-3" style="edgeStyle=orthogonalEdgeStyle;shape=connector;rounded=0;orthogonalLoop=1;jettySize=auto;html=1;entryX=0;entryY=0.5;entryDx=0;entryDy=0;labelBackgroundColor=default;strokeColor=#0072C3;strokeWidth=2;fontFamily=Helvetica;fontSize=11;fontColor=#4277BB;endArrow=none;endFill=0;" parent="9PhllvtnjBpvdxcWGEBJ-3" source="9PhllvtnjBpvdxcWGEBJ-6" target="mBXOT76YMNYvzBuWMiyg-1" edge="1">
          <mxGeometry relative="1" as="geometry" />
        </mxCell>
        <mxCell id="9PhllvtnjBpvdxcWGEBJ-6" value="REST API&#xa;(Code Engine)" style="shape=image;verticalLabelPosition=bottom;labelBackgroundColor=default;verticalAlign=top;aspect=fixed;imageAspect=0;image=data:image/png,iVBORw0KGgoAAAANSUhEUgAAA+gAAAPoCAYAAABNo9TkAAAgAElEQVR4nOzdW48k6Zkf9veJyKyqPsz0kDuzsySX2qN2LVILyzuyL+QL6caAYcC+EUb3vtLH4HweDQz4wjBs3SxlGBIMmAa8AClg10vvyRB3eNJwZrq7KjPiNeKUmXXqrkNGVWTm70f2VFZm5BtvRFZ21z+eJyITAAAAAAAAABw8AAAAAAAAAAAAAAAAAAAAAAAAAAAAAAAAAAAAAAAAAAAAAAAAAAAAAAAAAAAAAAAAAAAAAAAAAAAAAAAAAAAAAAAAAAAAAAAAAAAAAAAAAAAAAAAAAAAAAAAAAAAAAAAAAAAAAAAAAAAAAAAAAAAAAAAAAAAAAAAAAAAAAAAAAAAAAAAAAAAAAAAAAAAAAAAAAAAAAAAAAAAAAAAAAAAAAAAAAAAAAAAAAAAAAAAAAAAAAAAAAAAAAAAAAAAAAAAAAAAAAAAAAAAAAAAAAAAAAAAAAAAAAAAAAAAAAAAAAAAAAAAAAAAAAAAAAAAAAAAAAAAAAAAAAAAAAAAAAAAAAAAAAAAAAAAAAAAAAAAAAAAAAAAAAAAAAAAAAAAAAAAAAAAAAAAAAAAAAAAAAAAAAAAAAAAAAAAAAAAAAAAAAAAAAAAAAAAAAAAAAAAAAAAAAAAAAAAAAAAAAAAAAAAAAAAAAAAAAAAAAAAAAAAAAAAAAAAAAAAAAAAAAAAAAAAAAAAAAAAAAAAAAAAAAAAAAAAAAAAAAAAAAAAAAAAAAAAAAAAAAAAAAAAAAAAAAAAAAAAAAAAAAAAAAAAAAAAAAAAAAAAAAAAAAAAAAAAAAAAAAAAAgEcRdjsA7K6j3/pk23PPfhwAeIsfpZS+s7HI/5BS+uf97a1lzLO/2vq/cZNXHNwWAwDXEc4BuInvXFjmn9tr2yGgAwAAsC0/tCfvTkAHgEOWqz/qK+eq5wBsw3f8u3J3s12dOABwZ+tfmqK0FwEYy2ZId/2zG1BBBwAAgAkQ0AHgsDg3EIDHoOX9BrS4A8Bh8IsRAI9t+LdIu/s1VNABAABgAgR0AAAAHpKurmtocQeA/eUXIACmyhXer6CCDgAAABMgoAPAfnK1dgDYMVrcAWC/aGsHYNdod++poAMAAMAECOgAAAAwAQI6AOyLXP2R1xIAdpeADgD7Iso/9VoCwO4S0AEAAJiKg77Yqau4A8Duc+V2APbJ8O/awV3RXQUdAHabcA4Ae0JABwAAgAkQ0AEAAGACBHQAAACYAAEdAAAAJkBABwAAgAkQ0AEAAGACBHQAAACYAAEdAAAAJkBABwAAgAkQ0AEAAGACBHQAAACYAAEdAAAAJkBABwAAgAkQ0AEAAGACBHQAAACYAAEdAAAAJkBABwAAgAkQ0AEAAGACBHQAAACYAAEdAAAAJkBABwAAgAkQ0AEAAGACBHQAAACYAAEdAAAAJkBABwAAgAkQ0AEAAGACBHQAAACYAAEdAAAAJkBABwAAgAkQ0AEAAGACBHQAAACYAAEdAAAAJkBABwAAgAkQ0AEAAGACBHQAAACYAAEdAAAAJkBABwAAgAkQ0AEAAGACBHQAAACYAAEdAAAAJkBABwAAgAkQ0AEAAGACBHQAAACYAAEdAAAAJkBABwAAgAmYeREAgD0QXkRgz2Qv6OFRQQcAAIAJENABAABgAgR0AACAadHefqAEdAAAAJgAAR0AAAAmQEAHAACACRDQAQAAYAIEdAAAAJgAAR0AAAAmQEAHAACACRDQAQAAYAIEdAAAAJgAAR0AAAAmQEAHAACACRDQAQAAYAIEdAAAAJgAAR0AAAAmQEAHAACACRDQAQAAYAIEdAAAAJgAAR0AAAAmQEAHAACACRDQAQAAYAIEdAAAAJgAAR0AAAAmQEAHAACACRDQAQAAYAIEdAAAAJgAAR0AAAAmQEAHAACACRDQAQAAYAIEdAAAAJgAAR0AAAAmQEAHAACACRDQAQAAYAIEdAAAAJgAAR0AAAAmQEAHAACACRDQAQAAYAIEdAAAAJgAAR0AAAAmQEAHAACACRDQAQAAYAIEdAAAAJgAAR0AAAAmQEAHAACACRDQAQAAYAIEdAAAAJgAAR0AAAAmQEAHAACACRDQAQAAYAIEdAAAAJgAAR0AAAAmQEAHAACACRDQAQAAYAIEdAAAAJgAAR2APZQj5RxeWQBglwjoAOyf7DUFAHbPzGs2aVdUf+75W6dfWm/nk0+2UIH75EGn3PjemIM//Oa0fvTppyNWQz8eb2ge0Kfp048/rlNEbv8AAOyY/W//22xx/CTF97qv/S/761/KP/vg+/1y/6z975d/9oNIHzW3Pkq/++MfXthP301fPP/z1X2v/m4e6beH7347nX72N91j3+7uWfzss/hG+sbq2afHxeq5Z5//PFL6oP3/YPH5LyKl99P776d09qtf9st+PS2//Ly7/bXVf9JiuC+lVM2LjXm+SMvZr+LdjVlXL7+MlN5N6Z2Ulq+a2++sH3v1VaR3nre3n7x6uR7n+bPu8dfNff3t8lX/+NPVYvXpq+i+fZqq01fxdHV/xHqx7kZ19irSk+Hx15H6b548Sak+i3P7uhq+P+mXX5zG8E1dnMZJOl7PYXEW3UPdffXZaf/ck/55g+OUm2X7px41PyaLjfUeN2Ot3xv1MqJdaOUozZeL9ePF+fdRXiwiHa2fULfLztu7utvrx3Kx2HjuPOVh3KOjftlh6Xk6a46oNffNu3tztfHc+TzlanlurDq6x+fD2BvL51jG8EjdPm82fNuaVf3js7Qxbnc8r47zr1Eenj98Xy8jzWbtcPXmnGbzS8vnYv14riJWo8y6/2yue3V7eKyuNsYuU66672ftWGlj2WZOF+Yc5+dcVuvXMBfVue29uHy3nrL9tqz726tt6J87m53/fjTlOANX4856m4pIUdUxiyLlnMrPY7n822cv3v+b/+m/i5e7sxX3c/RbnzgY0XFKA7BP/N3eZKW/2kaxbLfs7wYPwfyTFB9/t9vOzz5I0QTvjz76KP3yxz+ML54ftfcPAfv0szKaUP3+z8o4Pf5ppPRhOjsqYgjMjeXRL+PrTViefx6LL4uo5l/Ei/QiLWYRVdkF4OWriHfaEPxVpPQ8VU3gff6sDblVWcRJH1qr9uvTLty2wbcLEcdFRBsun5y0y9TlabTB9aQLlsfpuAufffA8bkNiRC665zeBsV40359FkzZny7M+YB614XHWLjdPdbGI3ITPeRfe2iA670PgURMWlzEEvzpS+5wcKYbwVvehZfi+CTFtIJvP2rA1hJoyUjTfpz6QtQGqD3m5fSxFFwQjcp1itgpn1cZjqd2+7rnD/X0om81WoalsHqtTP3ZE0QSosmx+0iPXdbtMEf3jQ7iKuhuvTKmoU+RYPz/VKYomA22M2T03tY+tn1Ovtqf/CWy/Rm6Xb9fTzLsZoCj657fP6c4yaebWPLdMRWrHagJlWbT3F6lIVTP3skhFvw3D9qy2Zdi+dvD1vi025pJzis25puj2dzuF3H1t6o7r+Tdzyd12Fv3z2/X0y6zGb5JRs1y3/ma5YdtiNacc7Y7PTVmz3+5mv2+M1b1gG/s6b8ytn1c0U2y2r+hSd9GmsmEdzfT78ZrbkaM7dpIj988vin75do79cu140c4xVvujeT2GUL8eo2iXi9V6mvkM+67dB6kbJ0U/Xu4WGd2j/BN+hzOkxphnzrMUcZJT+wb7y5zrP6lP85/8m//+w5+MsLZJEtBXBHRgn/i7/UAD+n63uPfhfAjmv5tO4sm3342//uzP04cfPIt8XMbrn5Vx9M0i2vLkrxexqItYzn4ZuXgnFrPX8fyrIhYnz9oA2lSgl8tn8eWrX8STWRHlrA0akZ81KS4iTp/FcVFH9U7EWROsl2WkJ69SVRdR16/jKDUJPOLsSYp5E7ibb09ft7/1N6G66KuTTdiuZ2XMl8uIeTdOnkfksyYol7FYLmNelG2ALuo2brXhIbe3o7udmrA3jzSrUx3zmDVhe7boqr1tyFr0ITBFE9rbMDKvoqkk1k0KWVapjCLa4FsXXTBrfv9tQnzzXWoSbROA68htkKu6UFaU7TxykaOsy8hN3EzNtuU2GEbug2oTH9vqXzeHJpS1QT7qqJvbadkFs7IPuF3kiSqqKOo2oEVe1u1uT3Vqx2mCX5ONctEF0WYDcxnduttA3Nyuu0DWBrFiCFXteosmn0UXuNoXKue2T7YZsA2TbajLqQ+L7dwid4G+DcN1+7wuxPevQU7dvNtXqQ3nzUN5tT1NiGvG7XZwijp182kfq9ug135tdkM1zDV1Ab6R+5DZLt/8HLUhuh+zD8FdwO32Y38Aod0HRf99s2/aea3m0gavWG1ndPNst74Zpx8j+h7ibh92+7d57aMP20Mo7w4VdIE1d+G1/blof/6if263b9u5RAwhN63mnvvXJHfzaSfSjTMcSOnn172Y0R086F+HYb7RHwhJ/d5P/f1FN3475yL3r91wYKWff+rX325rl+jb17edV/ecbrp52D/dSlbPGUuM98/3W8e944q3PN8oynJ28rzp3Gi6d/48ovjb2dHy/9juWgAAHsa+B/TmlMTORx+l9OMftjdfPZnHV5+V8fpJUykv4uzzIpoW88W8iHdnEct5GYtZEc9nRXSV8SKaanh10rWQP3nvnaheN/e/ivmyLF5/eRZN9bupfJ/G06i+ijgqT6OcF6l+GVGUp+0v/2cpYp5P2iDYJIA2EBZnEfk4dUFvEamtfDe/1pddsFh0YbSPjN0v/0XfbhsRs3nRVX/bXNIv1wSHoiracepZKosq6lxEXlRtCF4F+pSHEzW7QJ+bgFdFW5+dzVLdVLDbsXIb4JvwVJapPUjQVKbbgNhUdbs23limog3AXaopI/UBZTXz1IX8ZoPyEBab/y7rIkcfiqLoq5eraujqgENTYu+KvLkLmEVfzW0q4c0Bi7bynCLq9fObkFYPQSytQ3O7T9t51O2YTbjNbfrsHusCd5uai5xSWgXx5nVrgm+zd+vUB8Au3K8qwzn1Yb57zlBF7zJ4V5Fu7lyFwL6G3G1vH86HAL8K1bldb16Fyn4ufaW43a667aGIvDrG0AXiGMJy/xqk7khF1H3gbxNx0wPeHspIq7A77LO2epzW80n9k4aqdMRGmC+G27Ga47rvYDPcN0c9+v2RNgJ/97p1A6z2SV79/Ax/cj9YF+43xu33+2qZyLFeb+4z8/r1WR186AN4X1lvK/OrfL7K6v3bq/2+2Ljd5/1huZQ27r9QZd5GOB3ift78ZovjX3TtmPc47rDFecasSLOT5q+NeXr5dy9/LUV6tkzFSL3/AADjcpG4pj3wRZ3PulJf+sUvfpHenfe/231+fg+Vy5yrWcSXX36Vnsy6X9LL6klOT9tCemo7ypvfPI9TOjvN7YnT9dFpqs+O01HXIZ6KRW4Lvst5pHqRm3OH2ziamwJ3kVMxS2nZ317WkWY5p6LJnUVOizqlWbFMqZjn5bL5vXTRnipaNlm4WKTmobqYdzmpKOu6amL+MupmlGIZZe6r7VVfrS5m0bWid8G5rVwXZbSt63Vu2oEj2nby6EJgE+7r7tBBFxqbluscbbyuYx0Wm9vN84bqbMyibqrmQ6U2dW3ofexqa9JDNbcJ20VZdi3gTbU79evaDKKpj5J9kO2Cbk5NsBwCcRe8u4ruOuz2Ld1taGuq51Uf5KJtz+7r1atqexu42/9UXQt1067dprLu/jaM1l2cawJun4m7qvXQsj3E9Nzd27c891XYrs7bVljzuoo83K6HcD+0SbedB+tUGP3Bhxie3x+caQ8AFF1y7fL58KToQ2tXzR8Cceo7BYYVDcuvqu4b1fToW71zn4q71a+D7To8D1X8vtN/2N4cm69Z3xGwDuMxdCmsQvRQhR4CdPfRWd1suxby1YGMdUJeVeWHgxur1v1VtTutKuX5XPDvf67qvu6+PuWhP+oRsQ7f65cjhpe1W0k6t8y5IJu7cLqtmvpVxfnhvvus46oAnTceiOsGf8NKrwvl9wzrkWepLptrErRrP8vNuTVV1hYIAOyk/a+gf7e//YMfpPS1/kpjf7m+vtnxaZ2Hi7bNF3VO734tzX71y/axL5+l9Pyr7qTYtCy6a6q9akroT1P56mV7/+vjIp30F1Q6O0rp6Ky7XcyOcl3mSKc5FWXOyzLiqIio6tQG2nnR5qQuzDZnxZZNRJ7HfHkWTT9zU8+cLVNUfTW3CdVNxbhaljE/6lrq6yp3FfGj5vG6O2+8CbFVV/Eu5839Zft90xJf9xXzrpU8+gp6X0WPIsomOLfflzFr4k/qnx/DHIYKZ26DaNEH5jZet2G1a/lvWtbbbct9RXW4v7n4Vi67kFT2beZ9mqnayvRwXnDdB7mhSbg/p3kjHdWrlvI+AeXc5eHoA2i0pxOv27j71ufow14q8qrPOXddsl1Ib5brW+7bU6JX1fscQxm4vZXX1e22bb5vp27GHW7nIRS39/fHCfJwIKBYtUuvKu9dub87OFAM54uv2szbKaRVS3Wxbq9eBdNVtTj1ATr6QxfryvbqAMZQPd5oY2/F+v7NrzEcNOj3chra4PugXvQBueud71r/V0G+i6qbVfh1dXwjnK+/9kX6uttlw/NiOMjQ/dzG+iVct973B0Hyhdu5b00YtvdimG8Df9eS37+2eTO4p1WL+2qb86qzIzYPYgz7ezgIcP489pHPJutX9aBV9Avr3vq4bxfLeVM0b64p0bwDXjaXeJyVx/X9RwYAeHgH+jnoTUL/27s//YsbLvfq9fWPnd5t1TGb50V/ECDKWS5m8xyzWY5y/oZfdZe3W0deV5+iyLktVzd/mhJ800ledr9WV1WbbO/2K3aVrr9U9MW7q43ftd/6a/c1C2zcHV39+8Ljt1nHdQNvxI3o99lQX24r/Jvr6BdtE17x5n0YG8mujYfFcMZ0f7LEcKZ2d0r2+okbVcRh1ddXMVcL96k69/Xsfh397dTX9JvDPblO5z7KKq+36Zp1nJvaatw0bEu3HTn39fPU75fhefXFQSJfHnfjFcl5/VCkvFEB7l6X7pt8bv/mCwMOr+mFdZzf5v7P5jr6Wv/bd8o2jX0A4E3yA23jVXK/9ry6OuAjTQQA4N4ONKBzEEatodWXVzDmu2lbkWModG51rvliqD3/dVuKi+Pm7QXD1dGJkeY+GPs6pMNVFrY+7k3nfst133jcmxv3onwAAOMS0PfB4tB3wASM/U46d85vfeHPfca978RusP6x9s25cUc6GnOr/XPDgwUPER/HKiKPEdJvPO4NhwoVdABgdwnoO2dqafyaNvVH8xA/0m8Ig7tau9vlvwnOVdTHXgc383gZWQUdANhlAvrO2gzqSugHwzu2c+1+OHeO+v3WMWbMG6G1+/I6tLsDAOwav+7vvMcK59WtLz7HPW373TrK+egP7MpAt+VQeuvQeIvz4rW733FcAID9JKDvpCGUP1Q4L/s/gwduay9vsMzKI3+60kN09u7UBcweqNX50t9kI1xVXHC8I6eEAwDclIDOlowc2m8U0g/so48n/+59QzB7tIMMW1jxjYe4RRVdu/vlcQEADpCAvpPmDzzpi+H7Ylp+wIr6lT+xU7tQ3QPYpXA+HDeJft7bDl9jfzTavdah3X3NOekAAG8joN/FO7s35fE84HnoY/607uo7YZcDzOgfv3bV56RvKaDeKajzEPvBx6wBALtMQN+mVzs8923k7FudKz5Bu/xuGOY+ycCeNz63/YrstFPn1N9nHTf8jPRdbne/Ee3uAADXEdDv6nlK6dluTn1UQ0gfvo7RfV5c+LrtU8/34l0xhKD6kc/Nvy6MxbkvWzfJq7unm7e872q7+wQ+gs3noAMAu0xAv699CemzLY5VXnN722MPtvlTvPV3RB4/IO/cu/iKkDp6UB+x63mnOwAesxtcJzoAwEUC+sG4pod9m8H8bbZZTb/uJ3ey14u7QUi/b45/Y6AbBt+BUDRGMH2Q1vER27x3zWO2u/tXDQDYYX6V2Xs3+Kz0sUL6GOekXwzgw0/wttd18Z2xlSJ4/TAt59eejz7Fj6HbCGhjhejJnYs+uEG7u49gu8e4AAC7R0Dfa7e88tuDB/XHuKrcDUJqccXth3inbGMdO/WOfowq8i0+9mxKtLvfWGRXcQcAdpeAvouO+jnPN/7c12ZWHvV89MfsQb/luq97dzxEIfrBi90P+VfBNVdzf1BTynDa3TvbaXd3kTgAYJcJ6Jw3ShW9Tql87JPDb5F4Ly465rtkiBIH9U4s3p7aYqR9stkeHSMdKLhTC7Z29452dwDgsAnou+pGVfN7pO1Rgno1kc9Kv+O54LvS5n4nUzw/vbetADbZc9GnuI6RqvpjhPQbjwsAMH0COkzRg74zLwaiG5Yl7x2Krhkg3r7IvZ0b9zHD6EVOn+7cYz/4Vw0A2GF+lYGpVI8fpd39DkHo4lO2Pd98xZwuht27vGRXbeqq3T1v5wJy163jVmFdu3vHwQoA4PAI6By4Cbd279q7806B8eKTbhBM05b2zT60o2t3Pz+eVncAYMcJ6PQe+yJuj2HC4XzTg7xLh6ptfbtK8rWfuX7XObzBdeu4b368du5bDqZ3unAc9gMAcEgE9INX3f7z0hlRH5LjEQ4eXMpBNwhGW73i/Q0T7EOdlz5GLnR19wvjancHANgkoMNk1et36EO8U7cZ8u49Vn77lfbvu47rMt9YLd2r8Xds3HNz37GruwMA7BgB/bEcX7Xes4PY9KtVD9tyvjM/+fnC18eexx3swr6OC1/ThdD46NlQOO3YDwDAfhPQH9MQ0o+ScP6Q/NSvXXkO+T0PlGxeyG1zX+e7Dr2lK6y/bRWbYvOBEdZ9p7Z07e6da1+s7rsYuwUCAGA8ospDen3Vuk73dnPvZmhr3nJoL64IjHSuDEX17S8Yt4/G/rx07e5XjHuTha5fd87ZtdwBgJ0lrjy2o12YZDmBOUzJG942o0SDPQnIscN/45yrqD82BeLOVad/yOYAwG4T0A/BrN/G2V229Q1PKi983ZbNccuR299v9A54y8XK7jzulmz71H1/K3Ru9PFrWwiEd253H2PcW5rg1d21uAMAu8yv4o9tzFPPH/LT00Ypsj9QOH/ju+AO6feh31XbWt+YpwDscmHzyrlPod39hqcf7H27e9JVAADsDQH9UMw3tvNWlfRlH5SvCctjdb+XI1/R/V4/+Tec2y6/uyb1kWsTcWk7Rrp4HPeQnYMOAOw0Af1QLPrtnG9jex/4quuTco+K+pjvtrEiyRvn/JhVy83zjzfmcd3HpG3TW8e954q1u18Y921zv2qdV16REwBg8gT0Q/XGKvp1D1aX++YPKqvvQLv7Nt06FD2mCyF986PetuGqz0l/tH1/Fe3u2twBgH0goO+kxXYmfaeLxnEn9wpGVz35ikD2YOePTyUIPeI83vg56Vual0btO4nIkjoAsLME9J2ypWDO49n6O+6aLBIjpLuHriLf2huutj9Wi/fobeO3fcIBtLsDAOwxAX1nCOed4YJ1I19Ebmy3euddFXQ2k0p9/u6LIWbUemK+28fQbcV1aW3Y4Dj35WFW7+ru59fxmB/BBgCwewT0nSOo76xR320XA/I1F067q3Nj7EI6GuEK69c51+4+9jp2ZNxzc3/YjnNXcQcAdpmAzg7bDKWPebW6/IYK8hVZ4THfdffNSje6qvvmSiaYlXbxavp3GnvPT8W+7tIMAAA7TEBnx+3wZeS3faXx9iDBRuW4yONfOO7S+BNPSMVGqtv2Z70/SDX6tk+4QSfBPnwEm5o5ALAnBHS4l83Kef3m87Ef87T54Z2+lXb3HS1TPliIG7m9Xrv7G8Zvro+4qz+gAAAC+rie7PPG3VO5Y+NuuvcF3vbknfdgH+t2V2/IaQdXcT2czOocdABglwnoPLxth+hhvDF/mosLX2/kDSXzh6ymb7N6fpWxx73z+BeeeFVGHWPfrFqurzonf9vruI09b3ffdDzu8AAAYxHQx/TqsSewfOwJnHcxmI/10/cQP9XFpRsXTPhj4O67f67LVtvc76O9hlu+uv1Fl8Ycv6V7p8Y9N/ct75utX9MBAODh+VVmVCfnBz/Z8crOnSrfmxdxu2aAhwjqY+XlQ38HvTUUbVaR33S1+7eMP6YHCblTajF3ijYAwFQderx4HMcPEdTv+XnpWym+P8IV1t/Uir6tkH6ndvd7uvfc+4Bc9ANtK5RezHpjffTV2G36V429rRx7ruVdu/v5dTxAuzsAwA4R0PfC/MJGjNDaPuu/3riKfsNw7mJpj7eOhzhnP13VynyDow2jdDxcOCf8ulx4n3Pfb3LAYqwKtnb3zoTPLgEAeJsDCugfPeC6hpPPXz/Aui6G83tWzq8ye8Nj27rg21hXX29/wuvu69g/7TvzbhoSzGMGxVtUk+99sbjr1j/2Oi6YZMu76jUAwJSooG/do18ZbvuuKsi/KbTfx9aD+ps+k3ziP/6jtnVfsV+2XXncVov0xQxZbGuf5CtvtsZsd9/6oBfG1+4OALCzBPTRPFRQv1gxv1hR35LNkL4zn2Het9nvSgv6VdnkIT/RebT9tLkRFzfysQPZW45KjH6ld+3ul9chpAMAh2usOugE/WDjquq/PVLKfPXAiWpPlWOcR7o54FhHGPqQK19cY/Mc8Du+T6562r3fcveYz1Y89voHU5kHAMDhOoCA/mlK6YOU0jv3H+qLwzqk8WiqQ8kJw0GDG5auh8XGvghWjHCQoW2RjpTymwa+wUovZsitzfWBj6oM27Ba7Qjh+NI6biJfePK2xr2loYqeHTAAAA7Lnre4f7Ld4d6a8Z9sd32MYMTq+a3cMmU/1Dt19Jbuq+6448eP7UN20+7+lnVoRwEADsvh1IObi7j/+PLdp/+xiPThhTu//vWUvvg8vdecev0ipfRVF86Xr2LjV9JnKaWX3c2nzUB9Pi+fpHT6OtVlEVXxOpo76zLiqIio2z8p5ovudo7ua1qepazXpegAACAASURBVDoi8jKt7p8tu2XzMiIXixgeT0cpzZrb1TLSfJ7qaJZZRi5St0y1jBwpyuZ281hElJGiiYO56G7n4bEqrZepN25XVXM7tcs196cqcpki1xFlSlHn/vYspfbxXEVOETmXkVIdRU5Rt+PVUTS/YjfLp4iyKFLzvOYX+6JMUdXd+opZ2a6n3YLmvqJdIhV1tJeNarax6J7X7p+ibmux7XLt/amOumiW7y4z1e7TZpmie36z/qLftm4CqVlru4G52fOpSHVqRui2KzdjNfGjmXfRDharZZulcr/uNqI097cjt+tJdW6XaW/n7r72sdTtg+4/dV9Pzu397YDrS2S19zff1/3tNp13OzjaaTX7p7kd3WsW7UOrGnU3RrOv6hxFN8X2FW/nkrr9mC4s38atthrd/ox3687p3LLt2jZvd0cN2v3fPW/9eB6e1+7nutv7qZlNrNeXNscb1tPOfGPs/rGrbneBtp9XrJbt9tlwu3t9VtvXPpzXc8jdPIbvYzWf7g2Q+n3eTn147NztYZl+7kW3QDdEd1fnLaX+1UMjpt5bZd1bzGPUDB1vXUdRzlMxm6Vctft41rwB60Wt9A4A7KT9DuiffJLSp59evr85Bf2z/vaHKZ19XkTTBb+YF/HuryKW889jMStiOSti8VVEVRbRhPNqFpGep/SkuV2+bO8/KSKq0y5oH5URyy/Oiqo4iyfzJ6kqn8bLs9M4mZ+k5vFldVbMc/PciHp5HPNYRBnHqS7OIpaLyGVEtYyYFaldJldHMSu7saMJ6rOIOi+iyvM0K44i50UsF0ft8qlJ8utsF1VKUeYujFWpilnzUufudjkEobIJlP3yZRfqU5W623UV0Tyn7JNGHsJIVbRHE8qiKQJHqtswtQ5cQwBsY/UQmrqvue5CXZHrVYhsQmfOXShrQnoX38sUddUfMEhtIM9FbrNtGpYd7u+Dd1S5Cc2pDYbDODFEpC4UFlH0QazuAm0TrIqyfU6Ry8i5OYTRhez2oEAT3PrQn4qcch7CXbQHEtoQG104q+s+SDa7ot4I7F1C64Nwf38qurA/7NchGV/xnHbuq7DbJcxVOMzrQN/Fz+aASl2k/iBCEUM67Pdxqouc+1Dcjhn9vu9eu25TcjfP9nUrzoftdtnc77voDzQUqdmeIWB3BwzSRkCuux/L7uhE9xpuhO7ob+fNbclFv6+6RyOvDyJ0r1F0xyu6BN2l53a/5uJc4O+WXx0g6XZFP69hzH7e0W9nO4c+7Hf/XV8yvj3K0x6WWe3u/vb61erElctcmzHzFW3lq7u2kDOvW/FdAvubrvd36zHvIi6townn5UlzHKhsTkN6llM+qgsn0wMAu2nPK+hNi/t337rU0Ys6n3UhM6X0i3Ub9Ofn91D5JDdF5/hys5n95UbX9KuUiqM6N78tvnqVoi5fp+LoJKfXKZoqezE/agqyqV5EKmYpxXKecpzFok55Xs+bEJ+KWaR2mWU3blOOLpbzVM8WXSGvaqrmi4jZPKdlUznqSrSpmqUiLZtqfUpVdz5rVeZUVn25epZTaitMTfquVsu0xb66Xz7lVA7nfOa0SjOt6IJEHWVdzlIXpnPVRKIUzbOiq+LmPpoX0VeOh+p3Gm5XkYuyrf/mJtxHH1yb4NXmviK34bxZf1Hk3IfwrhYbbTW/zs0jXZN4bhYsmkMO9RDCcxf4ctFNuW43pc3NVd1tcvfsft11ezSjP8xQd5X8LhrmNrPW7Xq7Yw99pbSvXq8r110I7AJsd5BgVdEeAm03aB9Ec1fRbw96dBXm9fKxEbzTuvrbvRpdmIy+ot+H4bwKsM0Bh2bT+wAa/ZNiqBJHVw4u1uF+uN1X1tO5Knu3QRtzS33Qz/3cYlX9X6XSi6G33yexqnwPz10vv6per8J67g8t5PZgy+pAT3eQoj5X7e7Oax/Cdn1pDucr7l0Ez+sAn1YHKDaWXx1syO3BmjS8A9p51BthvD92NYToGHZDWu+O1dRv6NyCI2XMW4foG8zjITrR89VzaSrnTTjP7bUrYtm9SFrjAYDdtO8BPX/6cUof91X0H/9uSr/bt7l/+c5v5VdP/io++KyM9O3fTK9/9h/i9LiI6pvvpMUvi3gx/0WcFWXUZRnLL4tI772Xqq9+FenFi/TOO7+K6qvjSOnL+CoX8fzkeapeRZwdvYyT17Oo8qsoy6epqUTXp2dRFU9StYg4Ll5H2/p+FpGenHQZI5Zx1J6RfNpXiI+75DOPSIuIRdsuvli1QjfV8mKRo2oK2E3uXp5FPT/qKooxi7pvd2/a4WdF87vqPPUBqw8mi1gsIubNp7FVQ2V7iNIRXW23qQ4X7frKZoZVV7GeNW2kUUVd9a3pzVGGuuqrqMu2A6Btm2+3o+qOQrTV7CqadbXhfVamoqq6/vghOLXV8mir5P2xjrayXeQ2qMeyqVs245ZlSqsgXPeBqinS5tSF/DI1lewi6i68FX3ff/TbWHQV3TbU18UqeLVxu9nqti2+q6h3rfZNy33z/75S3Cexot9bXcW/jv6y891rlPum66aCXfQt43G+6t0fqmgn1R6k6Hvlu4MRzbT7YDoc1GgGquu+47yvMA/b2Ofp1Lfvp74zoG2zr4cKdxe0o+8cKIbnbLR3t3Ovh8MIfejtuwlidSCh3099G3rXyj2so59vc/BhOGhQdI/3bePp3IGJ6E8V6NYb64MfRbf/VlE3DwcKuj6BVRt67g8o5HOJeBX+6xz9j/B6vxfddvWdHuugvtG2n8/Xw1cHLVLq19UdImi7J/pAn4bwn9fHs1YHKLpjKre40tmlSxOMdPGBMUL6nca9g0u7M8+aynkXzvO/j1T8ZB7LsweYCQDA1u1vQG87YLsa4qc//GH63ief5B99+mmk9HF69eT7kdLfT1/+2c/jDz/6qF38f3/9y/ju7343ffHXfx5P2uL5STRl8tPPyvjNb6f2Eu7/7xezSE++Su+lMp1+UcTR2Yt09uTn8aoq0+LVL+L9999PZ2e/bHrR03LeBNejVJyktPiyalvjX351FC+epbRogvFimZoW+uElWNav26CZ3pmll6++iuf181TNXkaRnqUqn0Y6eZaq16+iqnOqj+Ztunha51Qt5pHmObWl/aaCVC6a9J9y9TqWR0/S8dlpF3qPTlJdn3Ydx09O0lnTeh8pvSy6nHXUPO0opWrRhcwmhDdPmzed8VUV6eg4xeIs4ug41fVZu3CTJeqqjuOjlOplHWfpOM2Ks+635/I45eZIwFFKy2VbHG8PLjQJumt57lufq0V7Ln1zHn3K8+boQ5f7UpnqZW4PMBTN793lPNXLZtmUZm1nc7E6q3gV/fqk1WTyJjPPmnP250Wqm/P1ozm4sIyc5mnWfN9+gvwslWnZnPHf7r/cHICom3k07Q3d0YuuGl10L1PVJYNctlW7Pqx3681VHTHrXsvmOgDNmPWyimajy/Ygxiw11f/mwEOqqqiLuumabwep+lBWFtGPldr5t9X8oltvlYZyeJ8gmwBalqsQXjRjR5mWdRVlWfZvgXVxuzmw0nfqt2PmvjK8GrHu19lsUzt2tyNXAbUeGsKjXWd70CANcxxauKt2xzfXJGjmslou132C7o4BtF0Mub8uwuaBjP6VHELeUNtudm3RXvxgnRLzKhpHKuq6Od2kPYjRnrcR6/XnsjtQUXYHBLrtLqObd7+a9rBDc2CnbbPYWMeqt73fP8XQYbCe2+o1ys1PYLdPqlyvDqr0xwLWifJiAN/M3/Ww3c0xpL4pJa/Ox++uYJDq/qDEdX/tdc+9ePvSMl13wsa4RVo/b32p/W4e5aVxorwwdn1h/DfM8fI2Xv563TZ1dzRHdsrN7WxOQDnqjh4VP1nW+U+r+tkXb1o/AMBUHdJ5evHGj3j65JN+X3RXfv9eunwR+C7gDz4+/+DHKX32/e9fsT//2bnvvvyzH3TLfHRxufUdr378w7jcmP/dlL7T3WoOIly/ISm9+rt59/hvX7/M6Wf/IVL6zfN3fvv8t+//rHzjek6Pf7rx+MUr7XXOPv95v8wH575sWnz+i41x3r/0+PLol+3jXz937/q75Zefn5/n1y7dSIuLy5zzXvv/tkPigherb1+kxebjL64eqXpZXL+eSxcavGaMV19Fao7oXPOpAc/bZV724zy7/GDz+OuXG+u5sMywntNX3TJPV/+5pB6WWS94bvHq3OPnl0uXnr/50HqZ6uyqMdL6RJInzTiv44pHzn1XLzaWObn8eHX2+o37vrmY45seb5c5W/+deXLpRjOH5gDV8duGYYvqRXdBzWbEpnL+evHsi1df/j9f/uBf/uPFoezno9/6RE9/x7UHgH3i7/YmS/zVJwf3d7t/zADYQ303Ruz/Z7UJ6Ct+pwH2ib/bDzSg7/nnoANwkPxaAwDsoMP5HHQADscBVM4BgP2jgg4AAAATIKADAADABAjoAAAAMAECOgAAAEyAgA4AAAATIKADAADABAjoAAAAMAECOgAAAEyAgA4AAAATIKADAADABAjoAAAAMAECOgAAAEyAgA4AAAATIKADAADABAjoAAAAMAECOgAAAEyAgA4AAAATIKADAADABAjoAAAAMAECOgAAAEyAgA4AAAATIKADAADABAjoAAAAMAECOgAAAEyAgA4AAAATIKADAADABAjoAAAAMAECOgAAAEyAgA4AAAATIKADAADABAjoAAAAMAECOgAAAEyAgA4AAAATIKADAADABAjoAAAAMAECOgAAAEyAgA4AAAATIKADAADABAjoAAAAMAECOgAAAEyAgA4AAAATIKADAADABAjoAAAAMAECOgAAAEyAgA4AAAATIKADAADABAjoAAAAMAECOgAAAEyAgA4AAAATIKADAADABAjoAAAAMAECOgAAAEyAgA4AAAATIKADAADABAjoAAAAMAECOgAAAEyAgA4AAAATIKADAADABAjoAAAAMAECOgAAAEyAgA4AAAATIKADAADABAjoAAAAMAECOgAAAEyAgA4AAAATIKADAADABAjoAAAAMAECOgAAAEyAgA4AAAATIKADAADABAjoAAAAMAECOgAAAEyAgA4AAAATIKADAADABAjoAAAAMAECOgAAAEyAgA4AAAATIKADAADABAjoAAAAMAECOgAAAEyAgA4AAAATIKADAADABAjoAAAAMAECOgAAAEyAgA4AAAATIKADAADABAjoAAAAMAECOgAAAEyAgA4AAAATIKADAADABAjoAAAAMAECOgAAAEyAgA4AAAATIKADAADABAjoAAAAMAECOgAAAEyAgA4AAAATIKADAADABAjoAAAAMAECOgAAAEyAgA4AAAATIKADAADABAjoAAAAMAECOgAAAEyAgA4AAAATIKADAADABAjoAAAAMAECOgAAAEyAgA4AAAATIKADAADABAjoAAAAMAECOgAAAEyAgA4AAAATIKADAADABAjoAAAAMAECOgAAAEyAgA4AAAATIKADsH9yjvYPAMAOEdAB2D+iOQCwg2ZeNODGco6PfpBm87/4m1lx/NWsmD2dlfWsTMVsVi9+NS9OZuVRcRL14kw8upPj6U7t9cbtky2OdU91cRp1eRIpnab5aXn2+unyi1f/30+//MG/jIWQDgDsGgEduJUnP/nr5+W79YsyP3+3SMW7y1S/SMXpe+Xx8YuiTs+X9eI4Ui6aBp0cESnVq+EjIg/f5tw8Gnlz3c1dq+WKerXcxhCXNMsOY10cM/ctzheXWd+3Xl+uLrRD9/1Fkbvx8ka79PXj9fdFvjTu5rJXbUO3jkVElBe2J59bx+a+W33dXEdsrKM+v46L41w1ViqK9f154/7Zxj5dXJ7/xW27ah+tHptt3Fdv7INiYx31+Qavzf2wuY5IR2VRVUcRszofxU/KxdGfPvnWB/93SumXV+1rAIApE9CBG/uv/vVPntZRfhA5vpFz/RvLVP9GKuLDyOmbKdI3c0rvR0pPU5RlbkL6EKhWwXKj9TginUvnzQP9Y7l5ZJXFYn0yzhVBvR0zxYWvG2Nescz6vn6MOrfzOT/wuS/nHs+b8+/vP3df3lhHnJ/DFVuwMZdmjnX/NW88dnHOG9tbX5jDZoaNzbVcWG5ju87Nvc4bz8ntGN3rcWHasbGP8sUH1/etHovLj7WGUL5aR/Sv+fkxN+d/7r7m0EHEs5zTMuX872dFpPnL2Y8FdABgFwnowNVyjn/6/e+XP/3pB8W3XvzavKhP311W1W9EUX075/JbOfI3oq6/kSL9RkrpWymlb6aUPyiOToooyzZkRRQXAujb3KAn+cZj3dJDXE/sRnO/5TzG2h+X0v0Irh335vugmM1TeXLcHqh4/bOfND+3/255XB2NNGMAgFEJ6MDVPk3Faf69dz98N3+jXiy+XRfFN3OqvpHr4sOcqg8ipa+liBcppRcp5a+nFF8rj06KYj5PqQ3mTUAfSuI3SXi3CKZbD4wxYtDd8NZ13OEgwSjzvrqbYOuuHPeqfbB534W+i6JMUa4Wm+W2UX7C5/IDALyBgA5c6Z8c/ezpbFZ9mOr0n+ZUfpTr/Acp0q+nXL+XivQspTiOlMr275GIec55Vi8XKdfLewS8x64er3rsx/fGddyxmj/W/hh1HdeNe7N9kGfzlNKzlOuqGeOrSHFWVK8f4hUEANg6AR1Y+d73cvH97/7waf3O83fm+fUHqSp/L0X6oxz5j1PKf5BS/FpRlsfRVskjpapOOVddhbz/k6sLJ4rfKSppde9od3/bPmhPwa8WKVdVc0W/ZcqpKupjAR0A2EkCOtD6r//nPzv+t+VfvJgt3/2wTvl36hy/n4r8+0VKfxApfjvn9GvFfH7cnPO7utJ3E47q5iJrdWoutf62i4ndXH57OL3TuDcQefyQPtrcxwrQG6/Hg8/9Bj8Lm0sPl+YHANhBAjqQvpdz8W//9V+8qOrZb6ZIf5By+seRqo+aYJ4ivUg5n6QizZo24nqxccXz1ZXG88b3VxgS062C3Q1D+q3HvYHhU8jGDOo3mvvw4C3m8VAhPY2x398U0tPdW/8BAHaEgA6kf/e//s17KU6ai8D9fqT83UjpP8sp/rh8+vzd5kJv1dmrlKqulb1taX8wt6ue7q9b7oeHCOljuefc289T1+AOAOwoAR0OVo6P/9UP57/42nvvVIv09+rI/zBy/KMc+R9ETr9XlMW77RXZm/b1omw/Hzs3Z/ze/DPTLtPufsU6tLtfcut2943PqNfiDgDsMAEdDlQTzn/+9Sdfi7P0zbqo/0Hk/J+nSP9Fyvl3Uor3mr1SvX7ZX/itSrn5oOlthDHt7leso/86Rrv7W8e9C+3uAABjENDhQH3+7rvPy6r4xjKqv5/q/N2c4o8i0ndmT56904Ty+uw01Wev+50zQhi6dfVVu3tnKvthqu3uxThzAQB4AH6TgQP0T/8kz14v4tcWy+oPo7kgXMQ/isi/E0XxTgxXaW8bhfurwE3mpN4bzGOszBgPsA9Gm/tI426+Hg8+93zl7fYcdACAHaWCDofoP/7l83JefiMV8Ucp5X+Sc/r9iPhak4baqnlddy3tafN03hEqptrdr1hH/9XV3dfe2u6+cU97DrpOCwBgNwnocEA++j/zPP34x0+LyB+mWP52SuV/knP6h7Onz5qPUkvV6auUz07XO+RS4BqprVm7+x25ujsAwD4R0OGAPP+bv3w2ezb/dpXqP4gU30kp/70oihfl0Umql4umPbipnPcxaOoXw3Z190mN+2hXd79wR1GnVJUjrBwAYHzOQYcDMn9+9G6V8neKIv2XKfIfp5x+o9n6anGa6uVZ0x7cB/ML4Tw2s3AeJ33FXYqwNzwnfYws3YT0sU93vtHc7/B67PE56c5BBwB2mQo6HJCo89eLyH+YcnwUkX435/S1XNd1ffqq6HLeW7JN7HC7+963SE+w3f3BKul59TXnybd+AABcSwUdDsQ/+R9/+s6irj9MOX0rR/xmyunDiHjWlMvz6qJwu+oRk7eru1/h8SrpkVXQAYDdpYIOe665MNwHn/38Sb384puLuvxmLuKDlPN7xfxo3gSpernoos5NY825C8fd4Writ17HTbm6+6Sv7j5WJf3CpnZXcQcA2E0q6LDPco6v/fLHT+vi5a8vy+LbEfmbTZt7RHoSs1n3eedNwhk+7vw2zqWgkYqWY5yTfqdxd80BnZMOALBHBHTYc4vT4kldx/sR6Zsp0oe5iHdzzsfRhPP2enD7tv3a3Sc17kOHdP+qAQA7zK8ysO/Kk5NFrt6vU/pGTvmDyOlpk8ub887felG4t3F19yvGnUpIP6Cru2+8lq7iDgDsMgEd9tknKebl6yepyO/npoKe0/s55SfNp3jnutpOSE/a3S+POZWPYEsH1+7enIM+3ugAAOMS0GGPfS+lVFfxpMjxfsr5WynSr0ekpyl3V27fSjifNMXUO9nlSnrjZISxAQAegIAO++yTlIocT3OKX4/mo9VSfJhSehaRIjUfq7bNj1bb9Xb3MWh3v2YuY68DAGA3Ceiwx3706adRF+lJEfn9lPI3U8ofpKJ40p6om3PTDrz9jd/Vdvcxz0nX7n79PIR0AIAVAR32XC6KeUrxPFJ6b/bkWVHMj7oNvstHq+007e53skshPfcXiXu9pfEAAB6YgA577NOPP66LKkWONMsRRzGbp/bj1Vp9QBrzXODVesau1N+Udvd9b3d3kTgAYJcJ6LDvomo+VK2InIqIa3qhR/7oq46PYNPu/pZ5iNYAwIET0GGPffSDNMspz5r3ek65SPGGBPQg4Wgqbeba3Tv7F9J9DjoAsMsEdNhjT1799fOcyycpp3mbzR/jY9UeIvhrd79iHTs27pZCuhZ3AGCXCeiwf9qA8k//5E9mJ69n7+RcP02RZ91V29/y2eejtXbv+Eew7XW7+4TPSb/DelTQAYBdJqDDvmkCeM7x5NW3ymrx1TzKKKOJOqvg8oiV43O0u0/LBEM6AMCBEdBh3zRBPCL/L//NH5yWs+NXUddnKaVqElup3f2KcbW7X3b3dnct7gDALhPQYY8t5ie/Sqn4qrnZhJ72Ku6rC8W9JRhqd9/SuDew6+3uo0Ti+7e7AwDsGgEd9tiv//TfvMqpOm0+a63dynPB+IYepPo6UjgdI6QfBKcfAAA8BgEd9tin/+LjuoiiXiedi4lVALpMu/ukxr1Lu/vJWHMBABiXgA777Hspct30tL/pvNwbtDVrd9/SuDfg6u7XzGVjHdetRxs8ALDjBHTYYx9/N0WOKtbJ5Z7BT7v7Adqhq7sPi7weaw4AAOMS0IGeQHqZdvdJjXuPq7sDAOwCAR3YoN39Mu3uu9TuHvEQRzYAAMYhoAN3o919C+Pumum3u/scdABglwnocEhunK8UIS97xH2i3f0KV+yT6CvoruIOAOwoAR24hnb3y7S7T7LdfWPeKugAwC4T0IH70+6+hXF3zVRCOgDA/hDQ4ZDcKSRpd79Mu/t0xr2wP/yrBgDsML/KADfwmK3d2t0vjzuVkD69dndXcQcAdpmADodgMyjeOSDdMIxpd9/CuDcZcyrnpKcJhPT1+p2DDgDsMgEd4F4UbO9krHb3uh5/7gAAIxHQ4ZDcu4qetLtf6TE7C7S7AwDsCwEdDtW9Q7p29/N8BFtHSAcAuCsBHWBrtLvfyRZDuovEAQC7TECHQ3bviu4jt7ufm8dI7e63pt39MdvdXSQOANhlAjqwu+3ul8K/j2DT7g4AsLsEdKDzEOHoQQLYVDqcdVp3hHQAgJsS0IEtecRAOtmDC9rdJzUuAMDECejA2lbOSX9LMPQRbFsa9wYm0+7uI9gAAG5CQAcu25t295HsVOU4dvf1vEn4j0jd/7rbqfDPGgB74UdexsM0O/QdAIwhP2ICz12pNoqIcpaKctaHtlg9tL1V3WbhW+yPrRe942HOQLjROu7wc/GGcaOcp/LkacpVlZYvv3iaUzFfVmdSOgC77rsuaHOYBHQ4KLcIR8Oid/6nYXjiG9Z573W8YeimslqWKebzFMXGX3Vj/FN3pzFv8FqMNteRD57ceN63nMcV48ZsloqjlHJVphxxlHI9y4vQIA8A7CQBHQ7KHRJfPMDx222uI7pwlnOd8utXuTp9XY9a0b/1vG84j1H2+f5V0iPKsj59lnK1bEb8eUrpq3mqq9sPzp5RdQJ20Y/6ynny99jhEtDhIDzm3/EP2O7eVs1nbSt7XS1eRsTfRK7/NkXxeZvZc8zufUb25rPvvFsfscDbrLp+vNWvbWkf1NVs+dUXJznlKiL9ZY7486quX25ncHaMX2aBXfcdf5choANvtyPt7hFFKubzlOs6RbX8VUrp/8pl/ElU6S+bAJeiOMlRb+/vvWbOy7s88ZH/7Y1y3PFvVL/ezj4oIqKKmEWucx3zz6Ne/u07J0e/2srgAAAPTECHg7GFQDT1dve2gj5vE2JO+WVqqqmL5ff/t//29/98WOTjf5VHTqc8nk/Tpx9/XKd4iA+BBwDYPgEdDs4et7s3AT2i/2SxqFLKX53Mj36+ucin/yKcn3wIcu5+0IR1AGCHCOhwULZURU9TbXfPmzcj5Tw7zdXRbUdhDzxEtwcAwJb5rFg4SPn+6eUhrnN223Xk9kpw7ced58hFipjPUvF0pNkxaZFVzwGAXSOgw7574xnXj93uPvIahjZnAADYAQI6HLz7XDb9vpX0G1Ty770OAADYDQI6HIoh5F4Zdvew3R0AAHaMgA6HZMyQfi9OFQYAAAEd2PDY7e7bXUe4SBgAADtEQIdDdW3Qfcx29xteXf6G63CROAAAdomADodsrJA+Ff6GAwBgh/j1FQ7dGCF9gu3uAAAwdQI6cBDt7gAAMHUCOtDZw3b3yC4SBwDA7hDQgbVdb3ffXE92kTgAAHaLgA6ct8vt7vdeDwAAPB4BHbhskiH9lusJn4MOAMBuEdCBq03ynPTbrTuHFncAAHaHgA5cb7LnpN9i/cf32F1izgAAIABJREFUWRcAADwcAR14s11sd+/H1uIOAMAuEdCBe5h2u7uruAMAsEsEdODt3tiWvkPt7gAAMGECOnBzO9fu7q84AAB2h99egS3Znau7AwDAFAnowO1Mut0dAAB2l4AO3M0k292FdAAAdpeADozgsdvdh/XXjzgPAAC4HQEdDsHmO32bF2SbbLv7PdcPAACPQECHQzHmJ4Lv3NXdAQBgegR0OCRD4H3Q4Pt4leyIUEYHAGBnCOjAdkyw3T3nrAYPAMDOENDhUI0VXbW7AwDAnQjocMgePPTqOAcAgOsI6HDoxgjpE2l3dw46AAC7RECHg1C/ORjvabu7c9ABANglAjoclHx9ON61kA4AAHtGQAfWdimk3+Pq7gAAMEUCOhykPaqkC+nwo4PfAwCwJwR04LI9aXd3kTgOxHe80Pz/7N1bjyvZleD3tXYE83LqnCqVLq0WRh5oNOo2LGFswPUyfqsZP82zXQ34C/hrqPQ1/BG6MPDDvNoYzcB+Mgo2DJcAT7uFaXUL6i6NVFKdS2aSEXsZe+8IJskkmbxEkBGb/5/qKJkkMy7Mc3bE2nvttQEAeSBABy5aJiPpuj7lnSJxAAAAGBMCdAB5FY5b2DYj6AAAABgTAnQADaq7AyP1r/nFAQCQBwJ0AM8b6Ug6Ke64EP8dv2gAAPJAgA5gQV7rpJPiDgAAgDEhQAewxsiD9HZ7tHC4DG2JRJZbAwDk4mKzILl9BbCfkzeXewTpVHHHZfvJpX8AAIAstPdvF3kfR4AOYIMTp7uvWSbt0Y5BOgntAAAAGDECdADPGHG6uz/yWIDxIWsEAIARI0AHcLghp7sDAAAAI0OADmAHI0x3BwAAAEaGAB3AHvJZgg3I2NYuLgAABuhfc/1KCNABdIN0d2BoLv4mBwAwGv89v6qEAB24NEffso8n3V1VieIBAACG7Z7fz6NyKAcCoEe9rCZp6zeoPQ1ub9zuhuNo1kFXBhFx2dp/AHRWAQCGqK87x9FiBB24RH3HrKS7A0NDTxUAYGh6GUIaOwJ0AEegujsAAAD2RlC+AQE6cKk6T3dfg+ruAAAAWHbPTdtmBOjApVkMbk/Rd3mWdPemzaeFAxbpc3koAAD0qF1K7ZZr0WbcvgKXZrW/srPmcUjp7s1bqOIOAAAwFCyltgMCdACkuwMAAAADQIAOIBlzuvuTGqApOLe6Jn0KWE/X/AEAoCtcZw5EgA7g0VjT3WVdkA7gwH9FAAAcg+vJEQjQASwbc7r76XYAAACA9ZhneIRytEcOoD96gqb1BPugSBwuwfRvPu3yLOndAgDgjBhBB7DemNPdm22bGsEGAAAARoMRdACbdTrKbesj8h5H0hlBB5A/cyKfNY3rJxm3efNz9CK07QDyRYAOYLsxBekrheLMTJUxdAAZ+uQv/7L4Qn5cfOftf3QPL/65yt+JXH/zP2YZuD78vlD5/j+Pj7/x6q/83a3V/+5jqYVOWAAZIkAH8LwxzUknIAdwET6Rf/ybv9Lf3ly5731LRF6K/GZa5NkCvhT53m16+PofJvpm+rnKxx+d+6gAoBcE6ED26m7KTXQWpLcb6WkknfEUABfi7v2JfrNw+vre6dUPvH3zH/I973COIr+Vhxc/NvlnPxjAEQFAPwjQgYvQRq1bCrbtYmRz0pmDDiBXX37xc3348T9VUaezK6ezO6eTG59tmxfOUeS78urrf3Df+OWf6uf/5tNT5HYBwMkRoAPYz4jS3ZmDDiBbH38s8qXJ7Op3+mL6tStffmC/f51piruIfPNl+np34/T1y79SkbC84M/OfVgA0DkCdOAirIt4N4xg72Is6e4AkKk3/+Fz/d73PtL7+8LNJt9UmZi8f53v+d49pO7W2ZXZrfzo/AcEAD0hQAcuUgeR78iXYAOAcftIHq7/Xmf1jdYT1fpBtZhYti1mOMfwtXKqd7eqP2X8HECmCNCBS7MUBx8xii4jq+4OADn5SGT6S6f1C9Xr6RtXzF7au/fyzHCv3n6t75nTcI436vTN679V+fQ/I0IHkCUCdCB3xXNx+JY0810MON2dInEAcnX3yy/0+uq7+vKt6EOlKrcq1797nWWEfv3KSXWnWslblRcvvEwHcFAA0BMCdOCS9HXrNtB0d4rEAcjVT0Tkb15/pQ/uPVeXqvXsrRZlpp2SdyLhHOPjd6qzN4X+4rPPaN0BZIkAHbhEa4Nd0t0BYDx+Iu9f/1LvTfWqdq6ozO4yLRJXP7zTW1Utrl+YiujtbVhy7ZMBHBkAdI8AHcCCfNPdASAnYamx2T9M9PZ91WmTK3RVhyA2v0Jxdf1SY5ZA/U7LyQt1DwM4KADoCQE6cGnamLevQJfq7gBwAj+S+upvtS5f6uzh985f35qrzeo6w4k9pYgvwnm9Jw+zt664yXe9dwAgQAcu2cZAd6Tp7gTtAC7E3T/8jcp3PpTZw527KVRdoZLrwHJYQu7GVN212VtR9V85lfcHcGAA0AMCdODSbQ3ShXR3ABioF2+/Vn9tOhOnUqhkOgU9jp7XpWjIDrh9UL3/tsiX/+fPGUUHkCUCdODSrAtoSXcHgHH5wQ+k/urXag9eK506X6k5vzj//DafX2hIcXdN6n6pWr1WnXwsrIMOIEsE6ACSHNLdGU8BcCEevvxbldtC/YNzV5NbLQpbSXE/QYN4f6LP+kakrB9c4W/soVD95rfCymsfn2jnAHBaBOgAHg0+SH8m3X3lJdVM1wQGgDA3+07VCtGQAu7rB70urvzj59JzgB6C8+I0v4X67X06R3nQ66rUqnaaU4IAACwiQAewbPBz0mXnDgMz0wzrGQOAzG4L1VkoniY6q9Xp5MZqZ6dp8UJw7k73O4hz0P3UaXllXlTrt3+MBfIAIEcE6ACeGsWcdAC4bLdhbXAvOgkVzmci0/vFsPlENd1PsZtrkYncqCtMKhWVb3zjBDsFgPMgQAew3pjT3TvdDwAMz/dE5PWDau3EyUTUz6Z6VVz5ky619nCaNPeJV/VO1Neq3qua/1rvvvxr8qMAZIkAHcBmY0t3XzMPHQBy9PAHp17vdFLe6mymzk1uzDvTySnP9URp7iE4r/3MucmVlbMHdzdh8hKAfBGgA9hubOnui0XiQlljRtEB5OrFC/FVCMpDirvJzKvbPed8RKumT8J/1+qcSVWovi/vy+/kywEcGAB0jwAdwPNGk+6+8mwoEsdwOoAMTW9+p9fFd3VqovVs5ry3MILuc0whmoTU9lCtvkl1rydvVOSjARwZAHSPAB3AbkaR7r6y6bDMGiPoALL0HfEPqoU8uJlz6kRlslcV9/EE8iE4r+uQxi9molrdqRKfA8gVATqA3Q0+3d0W/oS7OuajA8hXXd6pmItV3PXapK7ynJttTtM5utDnqupfvRrAUQFAPwjQAexn8Onuj8xqVaWZA5Cf2dXvtbBXqqYxxb3Qia/rfcq2zUbzmVyVV1KbqNQzlcppPXujd7/8Fd2vALLEnSuA/Y0w3R0A8vJtCUurXV+JTt2Vihc3cTFvKDt1PdPaq3OlmhSq8uKlyJvf8/cZQJYI0AEcZtDp7inVPc5BB4D8aPX6K33v9mWcm11Y5QpX+trlOaknpriLqvipOnet7u4to+cAskWADuBwA093j1XcuY0DkKFvyjflrphpGQPXK628uSLL8fPU3eq8uqq8Ml/PXDEp9Cf1T+QXAzg2AOgaATqA45DuDgAnZlJd/1Kvpi+0KtWJaQjOrc60zbxyIlVducKXFkbQZw81Xa8AskWADuB4g6/uDgC5+VB8MY0jy+LDqPLEq88zxb32ooVOVPxMa1F3UxT6+u/+iiAdQJYI0IFL4OzoAe1njai6OwDkwLtYaUOluNLaT503ES3K7FrM0qlWVeW0nFgpVbqg/NnZDwsAekGADqA7A0t3p0gcgFzNJn/U6+kLlasqrLQWqpxLoabiq+xGluvQ7+CuNCS2+5mqXbOAJoB80b4BlyLEqqeIVweU7k6ROAD5+ob44o2G5G/ztStc4b1lWsU99LY6UWeVeheq4r0QkW8N4MgAoHsE6MDFsf7Txkl3B4Be1e++1vK2UHtQZ1dxfrYzLbJsIYtatJLauUIsLLnmH+5Urm4HcGQA0D0CdAD9oLo7APTnAxH/VuLIcmmVq3XiC2+u8znos52f7I33tSsLp1WtUprotLwjNwpAtgjQgUsTb2vaUfSe73Go7g4AvfhAPpB31zMp61q9TrR0piHF3bqeg752bfXTxsfeTdRmlSsKsXCuIrdy9w9/Q5AOIEsE6MAlC3PSzxak95Duvvq9O3zzADBks7df6+T2VsMSZKaita+cacej59Uw2tEypLjrRL3G49Hr6b0+nP+wAKAXBOjApTt7kC7dprszsg7gQvhqprU3V6g5r+pLbRrTrjLQBzJGHdL4C5NYxV1qVV9Q/hNAvgjQAZw5SB/odgFgyD54X/z9u7DcWBhZ1sKJ1nWVxrtP1iZOTrIX86Fye+2clRaK4YkLBeKmJ9k3AJwaATpwaTbduOWQ7q4rm/GkuQPIU/3ujVpRqFeLKe5+WjsrC4tp6ZmNLxchhV+a/ABV9e5e5Qc/GMCRAUD3CNABPBp7kL76lJ5i4XcAOLHQsv3PIcVd1BWqblY7r2Wo4q45dkqaqRZlrbUvYrq7zUhxB5AvAnTg0jx3WzPmOemrWwt3ddzGAchQdadalqrixZkrY4q7r8VpccpJP6dpYL2vnHrvnImpU53dmDx8+be07gCyRIAO4Kkxz0lfRHo7gFy9ErEHCWnf6q12YUq2lc5sKnq6u7vqJHspnGodSuA5C7vUKxGquAPIFgE6gPXGmO7OeAqAi/FKzP1RRUotpFQfKp0701gmrl27vL3LO00c3dtdpZloIWEpOY0p7s4zewlAvgjQAWw2xnT3tlCco7o7gHzVd2/UlVdSOKfeTIsyFYsrFpvMuvl6qs7Ldn8d312GDAEVdc6L1VaE9eR0vi8AyAwBOoDtRpzuHovEEaQDyNDLEA+HpdV8HeJWFxpRqwo73XD5FvN12Lu5zTQtNbTooeO1NNN6plkWwwMAIUAHsJORVnePReKOPS4AGKC6VPWhFzKMmovFtdBNqyybvLDMmoSOCC18XBL92kRm3x/AkQFA9wjQAexmhOnujKADyJnVMy1cqV4kFDePBeMGc7qLA/lH3m2aD+dWqjNzoSPCz0S//Yff0P8KIEsE6AB2l0t1dwDIgDnVND/bwgpkIWvI1BXnb0HrdhWN5nrhn3n/M7wXp2XYWCjkXrmiKFS+1+8pAMC5EKADl+bYW7cRpbuT4g4gVzHFPcTjsVEsYqp7KBMXKp6f/ZTnAXk3ldwKV6hZHYq3W6gWR7sOIGcE6AD2N8bq7gCQmbIWlULVe++cc3Z0intXldE7LuBmWoewXOPiHLWoTbgAAMgXATqQtc9Ei49MFteM7eq2ZgTp7sxBB5Cr+uFOi/ImzjwPo8phhDmsEH7w6dbD7ff0pi5NsreU1j+bqpTE6ADyRIAOZOyzv/iL+l/8r//hQVTTuEjXiYEDT3cnxR1Avl6Ir6ehjLvTwmkopGbiDxi7LtKXXjszjxuad2F19ybFvVCn/vpaRL7d2dEBwJAQoAOZ00JnVouPsWyMVnML0mXNORGWA8jci1ApvRTzXmXmnSudhfTv/U66eHzYa7NZ7PCeLWJ9+lKdxFJ46qupPrz7exp6AFkiQN/PlouBbf32Inz6aUcXy0/3evdPD//Rk/nFZ5+d7Ebix598Yj9TjWmOn/zl/3P1O5MPRPUqBdLWzzDJ4NLdyWsHkDf/cKfXcqPeJKa5m3knTdu/myOD5hPy4dzMnHNFmLClEyU5CkC+xhGgW3Pn/+mn+tMQgX26EPB88ol8+fOfq8jH8ubV502D/ZH88OaL+Pj1r36lIj+K/939+tcq8oP4jofrdv3M78u3r75UadbreCh/qyLflelXv0uvf0dk9oc/qMi3YjLVtCzi89Xrr1U+DI/i/8ns9f+lIt+QunytH4Qn/rcPZFa8bvbxvtTFm/Rz75zKq/Ts7bt3KvIyPq6LhccuPH5P6vs7jT3k8p7chMfxfcsXJe9cev7hXuX2Vm7jRTu9x7uH5r23Urv7+WM/fdCbm+bnp6pyLRLnc4UH7XY1fR+fv76Or/hpemzxva1r8S597z/+H1Su0tOTWXsMM5XmSdOZXsmV+GqWfv4qPe9n6fswryz99P8rFn7+SuJ7r2Qi4T9fVRofxG1VzXsn8u/d4+Pif5/NH1uVnreFC7kPowvN3/qyVn3c1qR5MrwnfF+mojRSxlcsPFdOmtfC+8r0XLuvutKy+Xlb2m7amX33v07Pte8Lz8f31gv7knjDFJ9rjrHdVriPKtIYePN6s93wuCjE/OPP/7t/+9fy3/7bv36oTWe/lfobzuSjcAQhxPXVLLy3n6XMBpXuzr0bgLy9kBdSqdfU+hYai6dp5XZfZm087aSTQqX26qV2IeFdXLh/mA3gyACge8MP0M30pyIaAvIvP/5Yfy4ibz7/XH8oP9bXL6/07uc/14fra/3+9/9WXn35PX0onU7LL/TXfyj0/bLQ6k/+RGev36q8/Ya8LL+ls+Kt1m+dli++IVXh9PbdvT7YNzQEsLW70xu70vrhD1pch0DvhdRv7vVl/YHKbSXvnGr94PXKOdVXL9XfTdXruxjIXl9P1E/faWmlvnMhqHwnYqX6UMxE70OlKi0r1fLaVKYpWPU6UQuB8GQivnoRH5dO1VXh+ZkW1xMtHio1vdOqSFdSH5K8QtBWpkqmIXG50Erd9URtVoetaehML0I6mAupb2FO2oOWcSpuCAQf1F2rzqpQVKZWKzUcj0qR0uSsqQBrMgmzvLQoJ+rqmdah2pZzWoSgV10TgIqar2Jd1XAsrvQaasiGfdbOUsVVP1GTWovCifmJhrOxslQJKXkWUtW8ShE+JNFwsPF4VbSYaHytcJNw+6FSeTVJ+xX1ccpdWFomBsHhZ52TcD7eF2nbzkt6Tzyj+J643VRjJuw6bjcsSePCz7hwPl6lUo1z3aRWiwFxrbULdXfCdiuV1ImgGgPrsK0QkcbKOhp/3kICnsQth9K64fU0uGEaPt8wd87ij4V9iaoLIxh1+GFNP+fj5xYq4sT1XsNRh8+01vRK+LmiiJ9+PL5QNCd8aPGGJXyEad+WNhqq6VyL2J+q2D+O25lOw77Tv60sg/TlxxSJA5CrUCTO396ES4DT2F3vzOJc7V0j765Kth+oWv2xLSP6Llwmi1gCTwuLReKK79IRCyBPww/QP/1Uf/GTn+iX3/mOvnn1Sn/4yy/09u59/fI7E3316nfuqvwwjCbq9O2t3svXbmZOX/pXej956+4Kr7fufdUP32l991rfXDm9uXeqt6qzd1N37Vzoa9b65oWWs6lTneg0BLfFzIUo1s/u9dpU/ZWo96qTMBQ7UZ3V6mw2C7OhYjAVg8S6CEFz/L6sS1fHIMnUhYysEPqFcqPhde9dHEUtJ2KTUIm0djatY0Dta+9iuBuDZFWp44/HAC8Ely4soyKitZgWdRMohmjIlU0QGorDpOA8pLpZDDZToFybxoA7riAqIcT2LvS4pxjGh6t6DLRjmpw3FwLFkDYXeq3Dxd/S8iYxiPQhzSyFSSH8ib32Gl8LRWpigZp4PC4edxwXVx+CSI3Bs3Pp7TFgjYFr7EwI2wn3F+nFEF6rT2FzPMTQKWLN86kTQc3MhUA7vCbe4nU7vuZS4JwC+PRZhu6FGKCmU9QwXp+OMT0nzSiEpjVkXfqZ1NkhPr0jPo43PuZiMB125GIYHD+65pycpBH79L2Fn7UYgIdP3WIEn4Lv+CmFc5D2/el8Uj1eSYF5c04pfTG8N30O1rw/Pm7ekQ6wOc60c9dkD7h056NxBL13Zw/SH1+gSByAbL2QmCnm4uWqUK+1i73TY7FUzm57ur33oUK9xir1NgunzAg6gHyNI8X9E5E3/9Mr/eGHN2nU/Hai37ku9F6+J9PyK/2gKPTd26/drHD6snB6f/fWhdHxq4d7N3VOa1fqTenUPajOJi4G45Oy0JlTLauZCyPEU1+5id3EOHDmvZvESNvrLHwJUXOIf+rKydVVrCQ6mZTNyK5qGWKhMgSYdRgPDeO7zsfR2vAeH8eS4/N1HQOmoiw0pErHoLcs4/qlMbh0hQtj5HGcNQZ6IbDVeTAsMXBsgsEwUlqkDgGpvQuPQ0zqmgC1fRyDtXb/bbAYQyhzbewXYvcmEH0MaOPor3cpgLYUiTZBcYoFm+A3PA7vi09ac4wpQDRN5yAxqoz7TKF40+GQxuCb93qLS6ikgDUFmrHPPJ63fwxim+C0CVxjD4lZ+1ia82k/r3kwnILUtuOjCc6lCfDjK9YE5NoEvtoEwY/H7poa6Br7LeLxpY6NuI9mBDx9DDLvpBBt32uuDdoXtp2OsT2u8HNxAz51JswD/fkfp81n3kbt6YyX+gSa58N9TLr7sboK0wji1xCxNoXimmyEnqZrnytIZ7QcwMV4IRanmKV10MUVZtZ3w9uRPQfvm25rjXPRw5Xa1Tr9o6P/FUCWxhGgfxb+73P5Qj6Un/zjH9vd//Fr/bv//Fq+HSYp//a1/Kc//VN5//3aZr92+sdS5EXx0qp37/Tugxd261ycn/3unch100Hr/LWJPEg9fVD34kVcI9qF6PU2JlyHcWBzoWPWmfj4/tTTW5lZORUprgpf1bUr48CtxetMiJWdL3zta1doEbLXtfaVK3zpLT6uXRGKm9QhgK+1cGm+mPdV6BPwIe07zA12ccw7jLjH8e2QgG3hwlukFPNwQLG33Io0Su5SIGfhcchSN1/EC7Vr4kWr06i7L1LsmkaVQ3DmY1TZBKqWAsJ0AQxp0hpHcuOlXmPRmTga2ySLWzNyGweGwxFqLNpisYBL+DTngbpvwijXjvbH4FZtIehsH6ubj6bLYpCeRoG1CWhTEB2j4JgrHsPb2EHgtDmGNMKsC50JcVS8eb80j9tgPDxu0t/b0erHn3ULj6Xdvpt3AsSUAZsH0tp0HIQx+fhfE4Crawe3pfncHrMPUva7T9t06bxSB4s120wheXv8Mj8Gi+c+P570vrS5OLjv5n0DMaV9Ma19da213IJ0ALgAoUhccVWoWbhbqNJa6F72mIO+i5VIuqus+KVLw/PF6nzT+xx7r8PZ1qm7HwByNJoq7i///M9NXr0S+YXo7Xf/kcnDROTqd3r14YcmdS3yx0Inr7zFdv7urZYvUnQdvi28N7kRKe5dbOan106uHrxMyis/DaPXzslVOfF17bWqZi5kntdlmPNb6mQ20/RYtZBSak3zpAvvpbYUVJV1mhVtRRwdtzhS7i2kwMfwzXtxpimL3KyO86fDvOz4fRy8ljRvOqRu+boJSGNWuEujzupDoJ3e34yeSxM4Pw6dujoOwvvQle7CCzGiC8nqKVSLo7xxHnOTCh+3XKeU7PmofAgC489Ic3Dzq2Ka59aM34bj1DS+vRzEWhpBVl0IqEOA/hiUNunhaf532zHgYrApaURbFkbrxeap9W3ngTRBdkplT4Fyu01Z+nzc40h6E+imkfQ2il3oPNA4L93Z/Jg13ejMHz+OdLcj6/PP0KwJ8FOaucU+i5SpkJ5Ko/spwE9ZBek2owng00RpFZ8yFc3awNy0Pa/4uTWZAfMMiCa3PX6+8ZdrTXZByKqom1R+afZvj0Pu62QXpBO1A8jcixdiD9Mwic2FKWTe6pQCbr7DRndlU700rTtk5cf7i3B+hY8Xlcn5p9ADQF+yXGZt8vKV1Xdvl68q7xbmO70TuSsWa5Z3aCaiV4WF6tqz9gOuKnkMrZrDai4sWlgYtl97MQ294HF90/i+5nG9fL2spU6nFd5WNNstChN//AVanbN4oW+vnVY/Hn8csF44kjCW394UpIVK56+l+NPWvtbyzRB7el9b4Gv9e9Nrbh75pand6+4ibP7eMCLtm4nZIXnAN9F6DJGlnRGuza1Hc6zhvfNU8BRxt+mDqo/J4ou7tPa19qebV2y+TbUmoHz8ft3+np5ws39JJ2vNPpo0hPippR6S2HsQuzXaue673lHlEKQv7ab9O3Df774B4EysrX8SOn/d01awU3WvW98qFrlRTZ0QzmlZyXwtFwDIDeug52TdxdPt1jl9FNdTYOee1Pza0R4Tk93zbzlYBwHv4R+trXzd0diD9LVu+t0vAJxBPb1TnRTh2t8Uf51nhvUzunzGgPgxxT2MR1gzve18xwMAfSJAvwTFiYL0Y28I+r7YHhTs77DNnizdC+lK8Nxnx8uYg3QAuBi3UtSzZuqUpgJqYfpVL6nfz88T71VaZjRMF4xz+Pg7DiBnBOjZqM//6zwmaPRbeufHVAisPQdb+L7jY9fFBztt+4CsR4J0ABg07+7j2uDWrHYS5sy1a5FkJcyuc/H84jz0VPxVdfbV77mYAMgSATq6Nc/JtpXh3iN1mkbfV07+hlj44FT9p3Q1cN4rSJf9AvUxBukrm031D/rZFQCc23xZUTevAqrxzq7TUfQzjZ635xDWnfFpaVMnhbfSqa9qlW9/+zzHBQA9I0DPysLV7Jxd6E/S3bcNj2do3kEhh41er7E0ML+pA6APYw3S20X8vG2ougcA43YrtzL1My3CuiFxNZOw8KtL65u0MfXRU6HOuJZZbLx9ewzzJVR1VjuS3AHkjAD9ZDrv0m4Ul7XWSCfB6Jk6DLoMdg/e1oWlu5+iSCIAnIEv7tV8WF5NXVidJKSAx+U5F9cIX2y721uFvQbEz9iAzo/dh9Nyaak17zRUcReJK+UAQI4I0E/iAj/mjYHREdHe4lJaY5qXHjUH3uFo95Micjtv90LS3QEgc0Vdh5A8xK+hwnkYO1cfFhVd18y3j5+NudvoftsbdxhZPzYzfvnSEINzF9Z5l1r13EXrAKBHBOjoT59LmI3Swh3TkQGv2oYf3ztQJ0gHgDGqp6riQrm0UG3DnEkPqxFbAAAgAElEQVRlqqWuDZ33ShzbZdR8h421mzk0S35hBZpQCC+Uqg9na7WplSS5A8gXAXrXJuu2VzVf+7iejC29fcP63H3Oo1677zNe248MSHXx8HUls6Dvz3BkQXoYWOp8owAwEBYWCC/C6HJoRZ2K966/69vi/cbiPp6JwDu4TQnnKLVrRtFFra60eveGIB1AlgjQ70XkxQn209cU9FM4dh7vpReNW8t3U3xnIfycf6J7dXbkne5uRpE4ABkrSrG6juPoMTJX0/5mjZ8xrbxW95jibiplKd98+Ob5jgcAekSA3oVJE7RU/e/qcO0l+0zhCsW6ntqYp77nZjY9ude280x3Z5k1ALnyhWrpaq29qHPexdbTdH2Ke6926HBe7KQ/IM73McU9FMRL66D76uJ7+QFkjAD9psNtTVaD9PYbL1KV4x007mSZFts+snvSQfUB/SIOCHRXM9yfbO9gzEkHgDEJFdtjynfsjVQ1b2mZtZN6JuJevb4fcE8RzjH8L5Ry9ypa6kzlW1f8XQWQpcsM0F80MWP4M7Z1OooTj0TXp45nR1ee/XhLAWmH66YzJ50UdwDZ8tMHdVdXsXJ7Sv8uvZc0H/205/zMTUkX14hQDs/CAmviY7Buawv+AEAWGEHHI9cEXH12ALSj6Iv7GEzqe0fzwg9xYEC6Gs63BeTm90Pt5933nHTpIVBnJB0ANru5FrMqDCk7VacmIUg/sk+yj+txB814SnEX9WEd9FqclOHiQJAOIE8E6F1rrxdtsBuz3Dv+mNtssp3XNN3T4nzxvkbsN6a7n2v0fEN1+VPqMyDde7NnrnTfOrbiPXPQAWQqzNCbetVCm+XHQmOpRzTcA67f6uJKcuaciPexirto9eaP9OACyBIBerzCDeA4hiyHAm+jCtK6PdiTTu0fWLo7Ke4AcuVnUy2KIrSQKcXdqfdxmbUD9ZpBtzhP/ZAlbdSFOfaihTrx6kvu3QDkiwD9/nxZzYN26rnuXTrJmuo96TBd/Mmm9t426e4AMFghxb2q4vrnIc89zUM/sk+yjaM7vf6vFpHbv4y7TwXiYop7XEyuDuf5YWdHCABDQoDep9kJhi/7ni/ednQXHS8j9ySVruNl4EZba66ZBz+oWDSPdHcAyI35MPvcO3MujqQPr5HsZgQkVqr3PhaJC4n8I14XBwCeNb4A/cci8isR+YGI/K6LDd43Zd2RLEb8xXJ6+0lGpjss1ObWxP17H/8zx6NrBpo7+4zWjGDb6k4PQHV3ABg9P1WVohAzn+Znm4Yq7mGE+fjWd2jNbG0uzLMPC8qZDzXdB3BMANCTcY6g/6jrDYYg/bbrjY7QDouVnmQ+esdB+tG3Kgekeh9s4bznQe7xI9iLP31YjD/OdHeKxAHIWRhZ9nFydpqHrqnsxoDC6x1vGJ5bqU01rvfu6zDXvlBfV1oI66ADyBMp7nP3C4ujY8nq8msnG0nvId39qA6GDSftVl7ucvS4z9Hug7Y9rnR3isQByJUvHrTwV6Eb0lkYU9bC61hTjJ456lAhzuo4x97HEXSZyGxCFXcAebrgAD2MmD8M4DhGqvOR9J6H5ldT0Q8OercEqJ3tY91227np3WQu2tpvenLOdPccViAAgLWuxbQOg+fqmiXWfK5zs1WaOfZOHx8DQJ4YQcceVkq7j71a+lgD0w4cF6QfmO5+iiCddHYAF8TSuucxSBfvnao5NbdDSzikbEH/bPV4HwvEFerFO2fivJkeUAweAEbhggP0O9LZ9xEvmvUAK8fsYbVD4eAOhi1z5HsLRNtgtLv9HD+Svme6O4XjAKAz5qZa1EUaOQ/LjxXqNaSCq9ftS40POLVow1rsITiPhfCaKu5SlBT4BZAtRtAHbSABcYfTwbfv5AQ6DRK3zEnveNW4tUIyox3XyZRduvvS561x8VwAyNGVXIvXaYjJXVyGLFQ6DzXcn71mD7hd3HTsseOhTW+vtahVa+5gAWSK5m3w2m5wflWPOixUdqqgVDraz+rxdvAxZJXuDgAXwmbTOBc7pbm72COptbowIX3zJ9Bh5mAf/eobLiXexKn5lLsflufQKhaKA4AcEfWNxrlH04eSDtfedxw4rL/ptmXvoHHL/vv+qJYCUYtTD0l3XzwOAnUAlyEE505DafMwdu5iFXezbY1xRxeoXq5zWzsP4ui5C6PoYd13KaV+9zUpUgCyRIA+esXCKHtf2s4BL3LuqizHTJ1bjKkXl0Y7OlhcGEXetp0ubyV6CHCzSXefs7g2j/j7PncCAGdyFa/PJqZhjY+QBu71RD35Jw6NVbSt3J7S3OMIOgDkiQAd49NF9fh1A+BHB4yLxeM25LV3PgdeN2z3sB2NPt19Zdeq5L0DyJN3U42V4cSH0fNQPi3ORX++D3v1HQekvW/qLPcLr3dLY4q7xg2r1aryAX+xAeSJAH1oirZid48D424hkNlrNHpAVe/7Gn09VXHbY4/fZH0nwNnnpMv5093bivchocFMGWYBkKtYsT0UUAsp7k69mD0zB1029E4v2vFCuG5pNF35urNt9xfhtMxpSHEP5VFVVcpwikToAPJEgD5abfRO+LHswEivs8DcPz/E30VwrvI4/1wXnrPFNx0uv3R3AMjIp5+q/2f/o7oiXAU0hKxqEkaYNQbs+53o6rD3nhfDdYVL927Pt+8zLvRu6kx9OFHnQj08asQByBQB+pCF38503fEtDK0fG1gWw10O9VlLQV2H65p1WXX9uf0ctY8Nc947Cnazqe4OADm6EnEhXvWx2oZz6nwoFrd/2dADU9xbm5r5xXsLt+H5nakLY+hqIWcgrp+pL95SJA5AngjQh648QQ24o+Z0t1faMxWPWyz2dox1NwwHd37scTCdp9Q3++6gsrtkVd0dAPIyqcKqauJCWnsMYDWthy5+357qAxrdXe5LFjd78H1MOhUf1pHTtMya80793lkCADAeBOhjsG2Uu6vg7uhAcazD8H3pcK32fSztsptjGHO6O0XiAGTNh4XPi1TZPK4T/vwM9PW2XcN3GGFflx1/VMf/cu+7czF1P56bibmy1A0ZhgAwfgTonZg1G2mru13qxKgzLsO2NahbO0m7g+12pK99dNg/MNZ0d4rEAciZKwqJ655bqOQe6qfJTnXcd7dj+vu64nDrisjt5Ok+La20pk2brlaHPb3P320AWSJA70XV/ehpW9198UJXn2eQdrsO54Lvq4vl19Y5OFjcIzDtKkifD5o368i1A8gXmu7OCDqAXMWQPIyc+/AoBbC6d3p7R7YF4R0cURg1Dyfo1MU1OsLa76c9QQA4HQL0XpVNsN6hMRd1O4W1QZ2tfD3A0fP0d7iX6G2Jt6baeweYkw4Aw2Hex6XH4jJr0qS4D61jspsOYtVwfuYkFYtjlTUA+cooQP+9iHxnAMeBYep6CLknu+zjzOMGY5qTToo7gFzZbKYyKbRZbzOMpWtKd+/yKrHa+B5Q8b0DaRk5pxbXQg913J3W797QvAPIUmYj6F81Q8zfHMCxIEvPBYtdBKy9BL3WBPZDqO5+4Jx0YTQdAOaursRZHYPWGJhLHFruLmgdULZeyBBQp022QJxpDwDZyjTF/Y8DObWO09tlqPPOj9RbanePx7spUOwqgHxuHwf/HbDxLsF2AOagA8hZkyQUJmY70ZDm3lGjeqaFSDbR0Plg5sxSw16kTgkAyBJz0HECvrnaL6TGrQagfRV4i1bngPd053GKm4VO9tHd+Q893Z0UdwB5+lR89fdauGb5GI09rxrnoHdhqSht+6DXC/VWmnpbtckFU/M1o+gAskWAnq26ObF1a5+cy0qgfLICYO1Nhe9u/lwnx/5M8bg+P595dfce1kmXfY6bdHcAOMTVlUhVN/XTYpAeR5m7u9jPlyI/z7zzRRZq1qfl0C1WrC8KkZqKuQDylGmAHkp7vh3AceBZ8w75MLPMnyDoanfQQbB+VAC94w+OpIr58Yc5sHxKABg4X81UpNQYtfpUxT2NpHdsANeglCJgTbX62knttL4jQQpAnhhB71W7zFr19KMuFga5L52uDKSOaWTUrRkE7nou9urn06Uwkt7RgMuYqrsDwPhdiXM+FlATl0bSY6Dede2N82W2z2lMa5dYEE/CzKVOK9UDwLAQoJ9FlS43JUH6WicrGrduFP2AqK+TQLEN0jeM7Pd5g9Rnuvupq7uv7I8icQByliq4+xC0xtHzVN+8wzT3VrvFrdfmI7LSnrnmW5px7pw48+G7wkReHb47ABgyAvSTaYLy1eAj/AamOZ/3jtrretthcbIe+9WdHLjTxWD04A6GZ/Y9kkyDs1Z3X/kxisQByJW5mYov1DUF1JrJ4j0vjXGe7Wqcg+7UvHch3d17TUE6AGSIAP3sSpGyPvFIum9y7Dtw9Gi33xzFuZFlGHQaQG/44T6DdNLdAWBUTP1jkThpUsD7tLGd7beQXFhmLUxEbxYK1cKL9rCQLQAMAgH6ULS/iZMVJe1wQfW2z37vYHrdya5E/GNbI33RwUHjHj/Ux5x0GXm6OwBcAKtE3UTUWxxVdhYy3L255ak9TsQ6vIju1c7uEbS3YwYbDtVLSOMPUXpYCt1UOxpjAIAhIkDHcMQL87mi8Y6qsJ0iNX/1EEl3B4DLcyVidbsGeigNFwrEhW7Wtoe1uSD1MCX9qdXGXQ+7nm/4MRVLFerNXOiNCAXjqOIOIFcE6GdXnTkAadPdOwiMjxnt3vZzpwh6l479yKBwdT763iPHuuV7aevZ9vuZjDXdnds1AJckFoazlOJu0sxFXzGmdtGvP15tU/ibFddMK+07rR4AzoUAfRDa3PBJfwfTpqGv7Z3uON197wBshzXJTzFKHI99cU58R5/JXsuvrQbnstux9PH5jDXdfU0tRgDIja9UXRhXDpnfZi7MP9eQBq5mS9fUAwez97K0/e4D51i5XZr0fd8ugzPW+W8AsB0B+qCcezS9IwcFi+2Fdsv5nyp9fL6PA3a2ofe/U9sOa8B/fUh3B4ButUuspVLuoYp7+BJSv5+sOZm+nmwJ027FFHdJKe4moTPClOsBgFyNNkB/+M1v9NXVVXw8+8Mf9LZMp1K/eaOzYqJSpB7c+u6dhpUz5YWI3D/+/K3cSuWmKjc3cuOcVLOZelW9vhapK42PJ+E51zwOtVcmYb6Xahmug5OJWF1r6apQQ1WtCilXj398fF/VfC9aNK95X7siXEDLMq7r6byPvd4m8UVnWsZKpeGxb5ZOceadtzJtp1QNc87izxYai8OYFOpc2TyWeJ32qi4cV1oYVeK+XUwNi4+d82kb4XFYryStMqoqPh1tSJUL2wvbittr533FewBzztLPhzuBptc+nYOFHu70OL4/fG9NEl44vvhyOo54sW2+hgtufN6ln4mDAHFenQ+HGo89LpkV555pU801bHte2TXuJxxVPO9wPM0xSVyepVkhVtIcvXbEQeapgbZ8TNYsV6Pu8XH60zxeeF/6YNO5upRmmH4NTUVda5a/CdsSefysrV2v1uLyMTJfJsfSa/H3b/p4U5KOQdPfi+Y80ucgaRLiPAVQ0/G59Chs9oiejTGnu2uapwkAubmaTMT7SuK1rrnWxivcYnw8H8w2Ed9jTNtz53m8Zku4R1IL5+mkkJtXjKADyNNoAvQ3r17pD29u9PXVld5NJvr9739f7otCpl99pd/+1rfk3du3OisK/eCDD+T+7q1WxQd665xOndPaOb0JX0NA65xeOdVqNnX1RLWczVzlXAzCi2rmanejVVW5SXhP4dRmqqWbaaXX6usqhMFa65X6onZFoVo3gXfh0letaydXE1WpU0CWwimnTaSkKUUr5GiFXu/QeZACvbC2Z6Fq3kKJUnUurPdZp/jaTdJjSwGbFU6lrpuA0sWAzryknvOw7dqnfYeAvwkG48/pYxBtTfAfe6XDefpmblc6hhB3OxeftxToN4F5OguXgu0mgA3n4nQeHLq0HEroYCjiAYWg0ywFxfHnwtasCdJTBB2rs/rYMZE+K2s+E1lI3UuH23QmpOEAF+84ms+1nYPn5oFxfMFZE+Bq8/mkx6axy8FSQGxtkR2R9nHsMAjHm5538fzn77EmUI+fSxNoNx0LbaBt0nRcWNNPEj8zbToDmmVxrD0Pmwf2Mu/AaDok4mtNwG/pvanbRWPXRQrN2/4FafoVXLOp0KlUi1WVWF3FhcGb9+x3mzaYIH2/dPflasYAkA9fzVIndNtJHqu4rzSOSzHsYnGUjq1rkn13u7M0iN5c+Kz/5eQA4IzGM4L++efyxYcfyk9+/GO7+/WvVf7pP116uXy/stnbIjbYxXvvWXWfGu/i9oXVD/cq75aX/nbX11bLVMPX0N772Uzd1ZXV1VTd5DrGbjJT8ZOZOJ2kcUqdpNitnoUhanPXoaO6DEPuomUIhCqtS7UiRFFmsbhqkaq2WK0mhaXN1GJSNIW+fDMUamYhRhbnnPfeu9pMClf4MOJeSyXO0hh1GOB2dRpX9WE/Wvg4ch7GlUMwaRrGi30YmZdmPHw+ch7DlToEuz5d0MOIduHb6q8+HKxvgt0QmluM1psjjQGmWPNelTCw7Zug0qm1I7fWrMSahsKbQNnEtTcP6VybkW17LPiSYsAm9g0jAU0crJLmnFm7xmsKbC0dg8Ux4hTAm7VBePPeuP90R+JiWNwE0XE8OY6M++Zx8/4YqDfPx+2lHIB072PprfFzbH4sHlg6j/gep37eERByFOaj8GZN1NwmwDe3K+3ruvBeSY+tyRKwdhzYfArO1UszWh+PvB2NV32MudsR8zY29X5lBP3AyreDmZMuu6W7x1++UeYXQL7CzYhvUs5ih3LstX2mRd2h7su+2oZ2sUNAZUOUvq7WynZthti889vXWt85mncAWRp+gP7ppyaffaYv//zPTV69kg9/8hORL77wr+/v40j6q/t7uStLnZZ3OntbWV2W6svvhBR3XxROZ3d/7+Rd4d8WTl/6l1Kr06mp1nanN95pLaKz2YO7DqPoIa27nKifpiU8rHhQm6o2idCqM68zF9LdC/XXqpXO0gi71hpi9hCxlfHKWGuIbaVq8sPDaHgYWdcqfh+e95NCiqYSadh2SCEv6nCpDd+XWoRtxBHtMFoewsXatcOk6gpJo+YxxT2NbsdtpOFU1wSR4TiKdKV+TH2O8aPXFF+msWZrRpZjjB+7EtL2XHMMaeS5GbW1ZkTdN6PYzVFZGqxUX/k4ditSpM+sCWBT6GlNWnlMVWu6DnzTjaDN6HUaTY+BlTWjzW0Hg2+Cej9PV9c0Mp/SxbWdEtA8b4up9r5J7p+npvs02m3NyHW8d9AmSE+ZDCq+SZNvjq/ZforT2xF13yaa67wTQWyeej4fRZemz38+At88fkxz13mae/qc07mpNZ0f2nz+Mk97n6e3h+NpMyBc043weM9Tisl7IvaBqr6nRRH2fVzKe0dOku5OBiSATIVBAQupfO00sTajy2/pRZ2/coLGceko1ubd77GpeD110lzIJdwH1SRIAcjTKEbQP/viC/vpp5/aLz77TL/66CP58re/Vfn4Y3nz+ef6Jzc3/lZEXv/qTm9/9I/k7tcTfbj+jYp8X15dfanuD9d69V2R6Vel3slUZq7Qb9ciU73SSr9WsQ9Fru/13RvVDz4wmb0JqfAWhjSlejtVefVS3Lt36uSl1EX6WjnVurqLl56bOKX6Sszfqd6+kOohpNTf663dii8f1D+oyq1ImKM+VdMbu47Ph7iq1qlK+F6mOqkLlWsRP00j1SEVP4zqy9WVTEIg7kKUPhHTmdbixGa1Xl1ZrOLqU2q3iCvUqpm6yZWYzELMFjodUqK0iZThWIuQFudVwty1qmpGpC12Fsxi3Ko6CXPtK4lp/+ECG9L4y7pSCfPmvU+BtytFtNYqJiakYW2L71S1oozz86UoxNV16kgI74uBslMtwo1FkxRfm0oZLrR1nC5QWLOImE/HGoNxaQJOq+NFOaQvhOt02J9Y0QT5MV0hXrotTKGvRVM3RtiWj8ditU9z8VNvQvqZOGAepgsUEufih+2HY47BuEsFeOLtROoQaQrVqU/Bdhy2kFioJ2UNpNGMJgO9ySCwJqU8TV2IleJjRYD4WYq0MXvqFmkm3McgO/yuvGnh5u9tlpXxMcB3YWPzWgLhsW8C8xiAV6EfSk3fE7U/V5OPROTPdHLltK5DauTh/yBHmu4OAFmZTCR0lred4akj13Rr/+s8y32h3Twudl62qWL8Tm375jc9Zro1y8lZnxPqAeC8hh+gp1Qt+9nPfhaTjuNzH3+cXvvoI/lc4ih7bKV/+q/+lcifhUc/kBDMSywGJyJ/DP/3Sfwv+PLnP1eZxyevwwal+Fjk7z//XJcKSr0K//dG3rz4SH74yy9UflwuVZp7/atfqciP4uMyvPlP2p+5lZiGL+lY4i7iwxfyx9/8pgmi3jUXsW/E938rbNm+1MeV1r4XU/IffvfblP793fDcXZOlX4ncfFfuv/rdcqXW78QPTN78IVy4ivlL327f8qHI9I9/VFd+M71WNFt7/XXcR/lhuOB/mD72Ms0ImL3+Op5H/Liq99LhhiN583p+ZazmB/CBvCheq/gqXTfr5pXCpH7rYpAu7zcHUzahaaFSvXujIi/Ttl49nk797l18/uX8GRdXhKuL+2bf7StF/C8WBAzeS8fvw4Pm5fr+bnnc4EV6zcfnVV5UzR2Fr2NBwfohnIFfXqmmMPH36a5GX6TnHj99J3EqRfobJ/5K5nc6/uFBb+WmOamF50MHzI0suE3HOm3OL7z3JnwJx9Fsd/rweB7hWEORw/b5hQC3vp68e1GV0zfV9FsTZ//Ci4a/nT9KnTdTkWMCdBlhujsAZMhSX3Ca6JSmSrmlHKqNzeZCmvu6jPNjmtR1K67Yxm9209a5aaaDNdl2AJClMVVxty1TZ2Mz/bOf/ay3nX/e25aBXn31L3/+H/6JqnwdJ/LHTIIeCgQdqa90d4rEAcjRT0Xk39dNDRQNhVjjGiJp6tlqobgli3PCV6PxhebyLC3n5rnpGkv7aJPDljLkACBXrIMOZM7U12mKYg/nObh095VnjSJxADI1iSlszfKbqfZMqqOy7XTXddD2HI3vNN199aCXv7emers2K6hQxR1AzgjQgcwVRXnjfV2m25kebsQGl+7++EOMoAPIVVhmLZSpTTXU4hpkrllyrRtLi38cuMWdZiDtsPFmWdam6G1cG7cu3xGkA8gSATqQsU/+0or/VP1/pXMymkj1JNXdAWD0JjEib5csTauM7DgHfReLW+m1HX4+zg4rq8QSqu2ypTHH/b0+DwoAzoYAHbhEfQS+g0l3b5nYtsoVADBik5g97uPa4GFBUWtWArFOGmLdXJG9c6s7WZeGr83SpGkhlrBSCxPRAeSKAB24NO2tW19Bugwl3R0A8mWu0rBIaiybFtYwTZFtt32S6yqyd2nXDoCQKuDFmYtXF7WwxOppeg8A4OQI0AEM1uFBervC/NYVgQFgxMpQCTOuDR5rucfYNaaCH9nurYxg9zWSvs8KmSnFvVkDXdS5Oqz73sNBAcD5EaADF2HDjUxfI9MDSXenijuAXFlVqRahurkLIXkM0tNo+jGN77po3PWUcbW4q3XLvz15d1zrPXZGhKXkhrdiKAB0ggAduHRrlsDtRJ/p7n0cLwCMySS2r2pmIYJ2IXiNo8x9jSz3MZLeBtn2bLQdswNMU4p7KBJXP9zR/wogSwTowEUYfzTLNHQAWDQR83VaXM2atcH7zvvua+vPNO5p9TjTZsE1NR86Il70dDAAcF4E6ED2qg1VcVfkmO5OCiSATPm60ihWODdnzdcOV0JvLEwW76uX9JlidGY+ZAmEE3SxI0Jq5RYWQK5o3YCL8uwwRTLW6u4rxx3rJjHuDiBTKVhtg1dLVdzbOeidNn3txnocoG83vTaNft4JYVabU1cwgA4gWwTowMVob7AyS3fXzfeOFIkDkK2yFOfrppB77AbVeSs45mZ+TaOdllYLK8mZOhX1nhLuAPJFgA7gqVzS3cNIzH0nuwOAQbG6CtntTVW4lRT3zBKHrCmAF6u4i6pTr3WoFAcAGSJAB7DeWKu7A8AFCEXc65jZHhpT16S4N0lD8+roXX8O6xpa7XY/810sbDQtHxdT3FM2v4mnijuATBGgAxdpj/mEAy+fTnV3ABfnUxH7N6qSUr1drGzeVDhfatg7XxptzRrp0n+pD23PL0bnvl3zHQCyRIAOXDQ739BzH+nuuvJk+HPVyS4AYHC0WVotpoA791ggbrWB7MXChnsOltNa7xJPMBXCq1lmDUC2CNCBi7dDkD6SdHdta/2S+Agge6WI1mlk2dL87GY0fbml7nwUfY1nlkk7VlsAb14Iz5h/DiBfBOgAdh9JJ58cAAYhrIMep56HuubiXZP2nf6s6qWTdXVdy/46AnQpOFc19fqCaxGATBGgA2jkke4u1IsDcAlClTgf11hzaRS9DWAXzn2xMTxFQNvTSHqsDGc+FokLwbqbV8EDgPwQoANYcOZ0966DdNX+qxcBwBnEZdasVHGmTWXzsET4ciN6suZv4drRQ6aVxeA8rYOeCuKp1o4q7gDyRIAOYMUZ0907nJMuqbCQcgcHIE8Tcc5C2bS4xJrFFtScqp6pV3I1SG9HuY/Pew+5/NZkCJiGDXuadgDZIkAHsMYZ092PtHjUJEECyFoMziUFr66p6O639HBueqWzkN4e92Mry3ked1kJOQIxxd3CJHQJReLqDo4XAIaHAB3ABjumu/cxVtNxujsA5Ma00jR4rm6e4h6LuW850fa1xd7LPgq7rR6DrXzdt3k3S0XwQkm8tkOCZdYAZIoAHcAW41yCjVnnAHI3kVLqlOodwvKU4h6DdPd8E7jYtK82sV0nUG3b3o77SYkCIbXdefMhh98r1UAB5IoAHcAzxpXuvnhnGlfjIVwHkKGwzJo6Ny+algqo6UqK+5Ye1HVN400XTFYAACAASURBVOpI91F2uHbsuh91MVXAvLkwC92pE39PkTgAeSJABy7Jwbcz40x3p0gcgHyFW7gwgu5UzIc0dxfnoy81ens2yu3P9rSe+eHMxbT2VKZexVMkDkC+CNCBS3H07cz40t2VZdYA5KoMS63F8fMwvKypintH6U6dhb/PTDrftGb70/dpE6SHUwzz7el8BZAtAnQgd2XXFXq5LQKAc7O6Tuufx8C8WSM8lX87vsXvPCPq6HT3UMQ9BuaxWn3YFDXiAGSKAB24REfdfI0n3Z0UdwDZKsu0lFkIWmMBNXNxBbJnG8kdW8VegvRFbvd96Dw7QNNoulLFHUC2CNCBS7NYubfvIF2Gk+4OADkxX4ViaRpLw1kbwHbcMPbV2brvPix0QEis4h7n2xe0/wDyRYAO5K4SkaKPcxx+ujtz0AHkzLSZmx1i9LDEWlgmfOvSFW7/T6OXIF2ffrutMJ3GXH61mCkgql60rqjiDiBPBOjAJdgUSx994zXsdHdS3AFkK6S4x2rmMXh1KYrVJgV8kyM6Vo9uxxcLxq1ubMMxzTOx4jrvcaJ9TG9nFXQAGSNABy7BtluZo1PRSXcHgFMr6lrNJKV+hwpqqk4sPn6mrT2wIe6ss3XDRrZep5rsAFEfR9E9jT6AfBGgA+jAUNPd3RAX9AWADpRiUoURdBfKuDcjzJkGri4ViBNzTcqA+psBHBYA9IAAHUCSebo7AOTE6kpT3JoKxGmckd7zrJ7eSno8c/3Q1Qru4durvg4GAM6KAB3AoxzS3Rc2nIrEAUCGSklLrMXOSdO0wprok8Z151Zwh9i+1/B/cY76gpgEFc4urfkeXq4PqHUHAGNBgA6gY+dMd1++E6VIHICsedH56HKK1PNq8uaXE22WkYvdrirm1T/c07wDyBJ9kACeOvq2Z4chmz5urRZvT+NX5p8DyM8vPvtMrU5zsdt52c1EbdeE7I//c/OWccsf3eE9p/jj2hT2pT/azD+PS8qZOefpewWQL0bQAaw36nT3PjYKAANSipiPkWwqEGfqQqJ7THNfbVsXm+K1TWP75I7jNs9u71CLG3sseRer1ccK9RpC87Aeut7ydxFApgjQAWx3VGG3HdPdOy8eR3AOIG9WqxZNsBqD9FgyTt1Sk7va/D7bJG+YB76N9pWstHQsrimAF0fQU0dC3cdOAeDsCNAB9OyMc9KZxAMgY3FetoWg3NrS5tsb2507Q/dst3tv4kOR+pje3lSL8yrGGDqAPBGgAxfjiDuoMae7A0CGClerxYTvELw2c8/jPO1nVq/YK0iXM2VBrR6HOVOdd0KEjgk/o0gcgDwRoAPY3SjT3QEgR0W7uFosCGfzYnH2fEO7Vzu7R9stfbXfoXq7hU4I36yHLnLTx34A4PwI0IFLYPLsoMppnDjd3ZPmDiBj1gbn8pjivqmpf66w26GXiN4Kxi1ttqlYn5ZbU92hEwIARooAHbgIHd41jSjdPa6Yy3A8gAxZXatzhYSiaaqxKzLO004x7DNWm+BjirydoImNldstTkQPhfDUzMd6eACQIwJ04KJYd3dTI0h3T/WEACBHZVh+LKW0WxxFd7GQ+yGN5rMN5eobTlw0xCyt8S7qRUNwXjAXCkC2CNCB3JXtfczQbmbOWN0dAMaujCPfKeXbUgG1WNXd79gvuSnG3rpOujzfc7pp78ddglTbefam6sIIuuP6ASBPBOjAJen6fubogm47prszUAIAS6xOc85VXarertIG6btb1/we3Oau/NDq3PTjFhJpOiKaOfcm6qcPROgAskSADlyKpVuZPZbPeQ5LsAHAWYThcrMYoYegNaaB75Xjvq2g3Mat7Lj5bU37vgF7THHXVMXdm4sz7mvKuAPIEwE6gAHoJ92dInEAcmVaq8a4NVZud9pUcxc7sML5alB+UNO50pu6rVr8PttvswNSEbwQpjN6DiBbBOjAJZrfiHU8kj6wdHeKxAHIVxEaucfl1eSAFPdFqz/YFknfaYObishteeseB5ric3mcZx9qxE12/3kAGBMCdODStDdHS8FuRyPYA0t3ZwQdQK7CDVytoSJcrJaWCqjtm+K+i0HUATEXuww0lHA3tTCCziprADJFgA6gMZSq6lR3B4DnmK819UK2gXl8rL2kDW0N0A/c4R6Bv6Wl0GOKu8a+110WeweAcSJABy5ZXyMjA0l3NyXFHUCmipj6Lc2c8yYFXDWtjd6xvdr0PXa/43ZTGr85VfXt1CU/o4o7gDwRoAOXbillnOruADAGFrPbLRWJC7F5KKDW0wB6dM4O3VQIT5vp6E2HBFXcAeSJAB3AGnmku6sxBx1Apop4WnHE3MX4POQMxbLu/TV6ZwrSY2q7OjXxrrcsAQAYCAJ0AEmG6e5UcQeQsxCoqomTQqVZeizM0+6/2dvaph/Rsbphu828c5mPosd10A/bBQAMHQE6gEc5pLsDQPY+EfN/F0qlpZTvtABZHF0+SdX1Z/dx4PVj43abc7RUrV7oewWQMQJ0AE/1sQTb0ajuDgBLdCHFPRVSaxrJvNrKlOLejKP70CnhVW5YZw1AngjQAZxO3+nuuvIy928AMmVaaxg017hGeApeQyCbY9nMOH4eB82dmNRhVTnxU6q4A8gTATqA9cae7t7cr1IkDkCeCjEfy7arqEvF3GVe7XzZCaal79bU7nkcj9ts0vhVLFWJUxKqAOSKAB3AdiNOd49F4riJA5ChUMTdp5LtcXTZ1In4ek1wfoJz73kfcd55SIlS3xSKc3Ij1/3uFADOhAAdwHmcoro7AOSqrlVdKXE+dju6nNLdB5w2dFi7Pa/inmrgheXWtF1nDgByQ4AO4HljTncHgByVpYj3ISp3zSTtGLw+aRK1aStN+msv92rL97iGPG5XxTU18MKJelLcAeSLAB3A7vpKdz9qNJ0gHcBlipN44lQebVcei99v/DDsBO1lH+P386Xkmmr1FAAFkDECdAAZIEgHcFmsrlWcmxeJm6e465YU90Gskb4/12QIpGJ4qRCer6Y0+gCyRIAOYD+DTnc/agMAMB5lIVpbWnssBrAulTp/UsV9tZ1eXNyixxh3bVNsWxr7LcfiXPpjPvyci2++6fBYAWBACNABHGaw6e4AkL8wgq7qFqq4N/Oz1zaqm9rZHgP0tW35pv09t3SmNn9cTHHXmOJOFXcAeWIWDwAAwGjpY4C7z7qSMeDt+Zy1oz4AXdxQmnbfwVYBYJAI0AEcbunmy7obwe7kps6HwSSG1AFcjr1avObNpwh1n90HTTUAtAjQARxv6earwxutg28c0zHYtmrGAJCFxTZ33/a36VgdTJC+4fjNqDMC4GIQoAOX5OLCVT+AYwCAoRtb0EvbDiBfBOjAJTjFv/Q+090BAP06xYygndrzDq8fADBCBOjApThVoNtHuntXhYYAAFvaWus/UN+5PSdIB3CZCNABZIsicQCQI25fAeSLFg64GO0yPCcYjX4yin6edHeKxAG4CF23dINOd6dZB5A3AnTgUp18/dvTp7szgg4ga312uA4q3R0ALgcBOnAxTrSUzlbEywDQi6wD3WOWkgOAcSFABy7ZINa+7W+7pLgDuCh9tHiDSXeXheCcZdYA5IsAHbgIzc2MrZnPd6o56X0twUYIDgCP+grSz57uvrr/h36PBwDOhAAduBhDSwvs/3iYgw4AAIAxIUAHkGSY7k6KO4CL1GfhuL49e+z0uwLIGwE6cLHW3OSMPd0dALCmre3Q2dPdaewB5I0AHbhIz9xcnXw0nRERAAAAgAAduGiZBcYUjQNwkba05Tmku9OuA7ggJb9s4NK1N1krd0Dtt33egy3tY8NxHLpdDf9RJA5AznZs4vpqz9smts9yHwTnAC4MI+gAthtxujtF4gDkj35IAMgJATqARoY3ebRwAPBo7OnudLkCuADcvgJYsKGq+piruwPARdgj3X2s1d2FIB1A/gjQAeyO6u4AMGB7dG4S6ALAIBGgA1gjk8DYD+AYAODkztiGn2IUnbtXABmjiQOwAenuADBeO7SbY093B4AMEaADOAzp7gAwcKS7A8DYEKADl+SgmzACYwAYrwzT3Zm+BCBjBOgAdrDhJmvg6e6q5FgCwNnT3QEAOyNABy5BJzdeW4Ljgaa7mxmJmwAQnTHdnTnpALAzAnQAAICLQJAMAENHgA5cmqNH08eZ7g4A2dqr7d0x3b0PjKIDwLMI0IFLsnjTdXSQPq50dwDISrmuPdwVS7ABwFARoAPIlhYFd4EA8nVUpyvNIwAMEQE6cMn6THfv25NRdFt43DyiSByAS9JHkE66OwCcFAE6gH7S3U8+J12eHAfLrAG4OH0F6aS7A8BJEKADSHIca/YDOAYA6EtnsS1BMgAMBQE6gI4MJd39kVlNijuAy9Nn4bg+MIoOAHME6AAedTIn/Yzp7s8dBwBcioPaXdLdAeDcCNABPDXWcWddHolhDjoA7ItmEwDOiQAdQA/OmO6+sB9TqrgDuHA5prtz9wogYzRxANYbc7q70LoBwBzp7gAwGtzCAtiut1ESPncAOKk+gvRzYIUOABkjQAcuxrkiYkZBAGC8BpDuTocugAtCgA7geWNPdwcAHNHunjndHQAuCAE6gN2R7g4AeRhVujtBOoDLQYAOZO0zEambExzCDQ43WQAwXudMd29H0427VwBZo4kDLsqGVPN9kO4OAHkYVbo789EBXAYCdACHId0dAPLQV7o77TkA7I0AHbgYQ0sv7/94VKkuBAD9OGfzyjprAPJFgA5ckq7vpwae7m5mjN8AwC7GVt0dADJFgA5ckvlNUgdz0ReR7g4AeSDdHQDOigAduBjt3dHizdRQMsC7Ow6N/wvFftWcaK0yqzrbOAAMwGd/obWYq6xtPM8e/J76WsLtK4B80cIBuSueO7+Obqw6SXfvYLvx/SoWEtxNpnbl3h5zVAAwSFbfq9pjB6R2GKWT7g4AZ0OADlyK+U3RurujoaS7b0m933O7cSRdvbPXVXnMEQHAEKlokVrGts3sYRSbdHcAODluXIFLpOvuo2z8d00h37P2Yt6LqVyJyZ/q9eS/+Jf/y/8t+qqsdOrfM5nQ7g3V/cJx3XR4jPc7vOdoXR7wc+5PvD906uHwjVXi312XxfR+Nv2WFfYDre0DUSfmKxE/lMrmGVxLAOCMuFEFLsmz6YUd3Vitm+6+lw3H8dx2zYuvpiLewltfmbr/0syLXpf/jT04L+quvPiY9B+WYGurvC8+frJLS0u1pddd/K99f/z/lW082a4uPK437EMf97G6neXtFRvft/Y8/PI+5sdij8vPrW5r6fli4Xn/+Pxq8lXzQejyc8vHt/gTtubzjvsoFvaxWDnAr56bW7uPpe0tHLu5x89n8fzW/R42/j3Y8nmn3231uA/n59sPn/XiNjf+/OLXYuE9tu4cnajWzx7rc8c/f21xH7pwrLb579b6z2r538diwLjps9329/fZ1+rV33mx8PvY8TPf8lnv9G9s7T6KlWNd+fdRPP7bnP/cwj+Q9b/z9N7CZFaZr4py8p56+TNR/X74G+5nU7G6Xj2sbhzUnu9wLVnbUQwAIEAHLtXGm6MORz+OugFrf3BDoL5mu+ZNZDYLwVH49qWK/Fem7odiMpUYm4V73naDtjBl09ZP3/SPx6Ha7DRm4dv8qHThB9vHS8/ZfHePz68eu7WnlbJV135NJ9i8zz19X7uPhcerH52uiefWHfP8e/+4j8fn3Zrj18f9LpzT4vHZmteWyhUufqPL+5wfwsoxts+tfc03r9nja0vHsOYXvm472/bVVueK+3Dt+9qyXdp+NEvbfPLzC9ucf139eXl6jpY+xA3H+vS19rml1/ya12z9dla3ufz9QgRn0v77ezxek6VzWjquxXNdec+zrz35nfvm97H5WFc/h9hmrH5GzfGvfl187ul5PLZXZn7ltTXn7h6bE3Er56Hr/16nf9LONz9ZiOoLE3s/RvIhQLfFKUI9jGDv3Z7vGKTLvtsFgLwRoANYY6wpihZS3NOtnnMTV04+1LL8UF0bPdn+94HzH+jw8zjqZnTH4+jlhleP2u66e3F78mCfLe2pj8/kFEvtbzzu1X3rwr/dHU62s89DNzzu6zPf9MSW4zhou4fasu8jF9GY93mEEN1XYlUlVldivl7pFRkK0t0BYF8E6MAl2zp6MYJ09y3bjCPATkVdIVrMhzcPO5C1QdiRn82pg4EuHdBpsemd878eY+20WB6W72EHux53RwHp0QOwS0PXu+1zn01vnN6y5TgOdfCx7rHvPfehixG6hFobm/bV00j6QVlRpLsDwD4I0AGMN919XfDf3MG26e51VR9/CoO6+d/jOHoN0Lu98V/bd7LzX78jAqIu/oqvdlj0ERttmBbxuJ+OsgqebHdfO4ygH7uProP0vQL/XfUUpLe/a0vzBubp9KtzVJZSU3oI0mXfz4Z0dwDYFQE6gGTwQfq+rJlf2lFl4z6C9LXb3dcOx9FboN7djb9t/GZXex7LCD6TzfvY9MJQsjpk87H0ntWx43Ecvd1dnHM6yuoOhpBmTro7AOyCddAB7GAoQxobjuMU93x97ePo7e7wu+nt2Lv7e6Ebv+nJCD6TzfvY9MKR+87y39E5264z7nuwv8sztlcAMBIE6AAe6QludLfuYxe2/liO3u4Olvax4TiO3u4hdrzp7ePzCQFpR0HpcUH6Ab+PPj+Tvm39d9pBJb+jbTmOMQXpfbVXne5jl+122F5t3MeuztheAcAIEKADeOoUo1HZ3HwNPLtgZI4fSR/I53DWIH1I280gSN+63Q6dpE2kvQKAoSNAB7An0t1Jd1+3XdLdn26XdPez72MJ6e7D2sce7RWj6QAuCAE6gPVId9+OdPc12+0x3X2v4yXdPbnQdPe+2i7S3ffYx66Ykw4AqwjQAWw35nT3k48ckT7apeN/faS7D2u7pLuffR+naK/6CNIP2i4AjBMBOoAjEJD2hnT3tKmN3/SEdPc9ttsh0t0vHEE6ALQI0AE8j3T37Uh3X7Ndqrs/3S7p7qS7L+6bdPdlOx4Hd64AMkczB2B3pLvvsQ+yC7pEdfd99jGG7ZLufvZ9jDndHQAyRoAOoCMEpL0h3T1tauM3PSHdfY/tdoh09wu3w2fi/KV/SAAyRoAOYD+ku29Huvua7Y483b0PpLuT7r60b9Ldl9FxAeByEaADOAzp7nvsYyifSR6FmE6e7p5lkD6k7ZLufvZ9kO4OAINBgA6gB6S7D9cZPxPS3ddsl3T3s+9jCenuw7LhM/HcvgLIFy0ccAn6+pdOuvt2pLuv2S7p7k+3S7o76e6L+ybdfRkdFwAuCwE6cCn6DEZJd99jH6S7d4l09332MYbtku5+9n0MMt0dAC4HATpwMezxpuikN0ekuw8X6e7H77DL7ZLufvZ9LCHdfTjaz6P9ShV3APkiQAcuwsLNTV9BwGjS3fvY7g5Id1+z3aEE6aS7J0MJ0kl333nfF5XuvhqkA0CeCNCBSzW2lNGd9rGLE9/8b90H6e7DmZMuBOnRUOaky+n/nQ6y42LH3wfp7gCQDQJ04GJsKJR2Uox8DFcevxvS3ffZx8i2e9Zjp+0CAJwGATpw6caUMrrzPnaRabr7Uc45Uke6+9Ptku5+lowX0t23bHdI1d0BIE8E6MDFWLz7WbnJIt294+3uqI/00bHPSSfdfWW7pLs/Hkvf+9hlu6S7Px5L3/sAgMtEgA5cnDMGpEtIGR0u0t2P32GX2yXd/Sz7IN19uLh7BZAxmjjgop1gJH3s6e59ezIqRbo76e7rtku6O+nue+y7z3T3pePoKd0dAC4YATpwcdbd/ZDuvvFm8+Rz0mX4HRed7mPTdkl3f7pd0t0fj6Xvfeyy3QtNd++rvdq6DwC4HAToABoE6cMylDRa0t0TgvRhbZcgfVD7IO0fADpDgA5krpB476Ritt9t2sXOSR9KuvuQtku6+/E77HK7pLufZR+DnJN+xn2f8nepIqoqGr7f91oGACNDgA5cgnhzs8t5Mif98TiGkO7e8Zx00t3PMye9r8+kb4NPd2dO+uO+n9l/n3PS+2ivVvfxZIfcvgLIFy0ckLk63TKZmZjYrjdQpLsPC+nuXTp5untvJ0K6e0K6+6D20dO/j3gRMx/OwdSMnHoA2SJABzKnRbyrMRX1KVQfw/mS7k66+7rtku7+dLuku599H0tId++PNfO1wrXMn+lEAaB/BOhA5tTiHU0tYrXVXnYfeFgYbT9JeuS6/fe9j12Q7v5Upunuex0v6e7Jhaa799V2ke6+Qehc9mJ1zAmrTZ13kytG0QFkiQAdyJ5WYnZvIm/rh3uxukonrLtOTCfd/SzbXdT3kkYHyTDd/SCkuw9ru6S7n30fXbZXmqJ+8yZ+NpN6eu9N5J2KPEz9PQE6gCwRoAOZM7OH/7+9e+2N6zgPAPy+5yx1s+PGtdVcHBeJk6ZB3AIBHLRwUCBxgDZo0QL9EPkn9G9U+SH9A3G+tR8KFIXhXhygsZICviVKXDu2dZctUZJJirvnTHGWUkzaJLXkniWX5PMABEmRmhnO7p4z7847MxnVjYi4VoajO+1w2IxT3sc74h6ERdoC0pmR7r5W1JbfzIh09x2U2yPp7gfL/XtUdpPnTdsM765G5rXIuN5m3GlXRs3B/yMBPk2ADofYN8+cKXWplkop1yLi/RLlakTeGa9Er6pJt3aX7r6hHdLdN7K7u3T3+6S7b96WWZQ7iUOQ7p7VvePVcjVK3IgSF8cfEYvVwiPDHlsMMDcE6HCI/ehst4t7s5yZV7Pk+xFxJTI+isySuZMA/T7p7vtS7nrS3WfG7u47qeMglCvdfd/rmOJ6NQ7MP34jeRhRbkTGhZJxMdq8Ge1o1HNrAeaCAB0OtbNRRb3clvggMi9m5rWMWI4uw73uZiaq/cj7nIKAdGaku68VteU3MyLdfQfl9ki6+wGQ0WV6ZdZdU0cZsRhtuRylXBlU1WJTSXEHDicBOhxmZ8+WYS4sR1Wul2wvlVKuR8TyeFVfVUdUOV06r3T3GZQ7Aenum5R7wNPdZ0G6u3T3DXUfsHT38Qx6HVGPh6pNRC5mVV2qIy630d5qR0tm0IFDSYAOh9wgR8tZBterqupm0K+WKB+tDXZiytGYdPd9KXe9WaW7zzpIn7qO2dvzdPdDGaTPU7nS3fe9jt1er0p3Vmi5Gxk3MvJSZl5ucnSrvfuQAB04lATocJhlxMl6aXlh0F4bNeVCKe3liOzW8S2Pj1sr7XjwczBJd59f+9gn0t03KVe6+77XsYF094l096a2jTIcRrTxUYm8ltlcKKW61DTV4vCrTwrQgUNp4GGFwyzLv3w7lr774ourCwuPZDs4/mREfDDeyX11+JlxinvEx5vF7ThYv//761Ll+x7/bVtu6WcEP3Xb1/VDr+VOYEMdW7Rj6nJ3Y4LHZmbPmXsFlun7Idc3L3fa1l08HjuuY9JySy/9sX0d271OY/fPy976ZJt2zKLfZ3XtmtX1qtc6Jil3s3bcu5d0s+aljXY0jLZtutnzm9GWK6Wq36sG9YX/+qsnlnpuGcDcMIMOR8BLzz03evTiW1fqtlzKiMvjM9Hb5lZpmlE/Z6JLd9+XcteT7j4z0t13UsdBKFe6+77XsdX1qovP750wUrrDz4fDuxHlgyhxNau4NMjR5X/7wRfGJ5GMPwAOIQE6HBEvPP98MxoMrleRb0eJX0WJd0opi91fn4OFyLrexbFr80K6+/yS7j59hX2WK9193+vYQLr7mrW2dMF5Dgbj+1GWWM3MSxF5PiPPR2kuttXxW/vfVoDZkuIOR0g2w5uR1ZuRcSyrXI7Sfa4eq0+cGB8pm00TpW3vj5R2OFSV7r5tO6S7z7iOrcrtL7VbuvtO6pjR61S6+w7KncR+vjY3lDt+UnaBeX3sRHcfitFotBIl3srIn5VsXm3b+r3Lix8Me24FwNwRoMMRcmph9fZotHA+q2qlacd/9xOlbb8WVTXI6l5CzdSz6OsGfDMLMGYcpG9bxyT2ePC/bR3z1CcTtGMmwdG8rEmPnT8e1qTvoNzd2OYNtYN07ZrV9aq3OiZpQ67df6oqStN0/7TYRpyv2vifJuOXqwtx5fTD19pZtQBgXkhxhyPkmWf+eeUzD9dXM+u3q6r8JqL8X4l4d/XmjaZZXhrvEZdVnVlV/Y3cj1TKKNs7HI+NdPed1HHAyt3Xth/Ra1eVkfWgu+9EGQ1jdGcxRkt3bpUo70RUv4k63xqNHn7/yVtPLr70ve81c9BigJk6qAtOgSn88OV3T94Y3P5GlPIXEfmdUuIbEfGHVV3/fpfuXpo22tW7a+nu46h9t9Pq6/7brMaeW5bb4+VtqrZv0469GI9vqKOnPpm63RO0Y2bPl/6eF2XLbya1y1UkfZv1TPq2bZ+y7l77ZIu2HLRr16yuV73V8btCxjeXqtsDZeHY+Ei1ZmV5NSIuRcRbJeIXkfEfoyg/+8+//vKlPmoEOAjMoMMR9JNnn1wpo9WrbYnXI5qfZpZzWeK9djRqo6oj66qnYM7u7mvt2ONdo7eso6c+yT3Y3X3qOrYqt/Q2c2x3953UsdUPtnl9TFXubtjdfeLHo88+qapuBn1t5/YoN0vGGxHxcka+UrX5dnX7zu0eawOYewJ0OIoyS30qb0ZdfttE/Xop5bWI+HVkvj+8tdg2Kyvd6WvRpbpnXWdvu7tLd+d3pLtPX2Gf5Up335c6jmq6e3e0Z7V2bymjUTRLt6NZWbqdmW9nyTdLxquR7flqsHrle68/7cxz4EipPdxwND3z/e+31x45NTx14tTdUrIpUdYmLTOaUsqxqq5O1qceGs9sZC+DxdzwqVcPnG3taSfzqYvZZnf3Wdq0jh53d59lITMNjPrb3X3zb3ZdSm+/uvMm7MHGcbv74RTl9lTgvrzBMMXqollcr6aqI+8H5lEdOxb18RPjr9vh6mqU8n5EebNE/iKq+Pmgqt+o5WwRnQAACG9JREFUcuFC3dxd/Kd/eHw05R8CcKBYgw5H3HdffPtEnFj5fB3DP4rMpzPzT0rJZyLiT4999tF6bV3gynjznm5WfbxscNesSV+zx2tdt6zjAKzT762O7crtpx+sSd9JHdv9cIr6rUnfQbmT6mnPiHuZWN1mcNXxk1EvHI9mdSVGSx9dyYxzpZT/jap6vWqrN+uq/e2zP3jy5o8y7doOHDkCdGAcpB87ufiFYS48VUfzdET9bCnxZxnxh1lVg9I0G89Gv5/yvuG87UkJ0ucnQN+mLVOXu1M2jlsjSLdx3A7aMXW5k5jiDbRP3ivK2tu8Wa2d61naspgZr0WJl0vGK1Wpfx0L8e6//+WXPpimxQAHmXPQgXjpua+sfOfNN68fvzOq2qYqVZaSUW5H5FOlbZ8oEacz8/eyrgdZ190UyNpga7zJe7s2q17KzmfYZ3qu7mZ6PBN8Fu3Yi/7Y8/OdJzXBYzOztvd3JviGJh7ox3O/z0mfMt390L2O9vPaNWHd95ZIjN/H7e4R43T2tc/j+0LbRjsaZZSyVNr2w8i4HJnvlshfllJeXajr801999JjHy7bFA440gTowNgTr766dPPrX7/cDMtKDI7dqLK807bxtcz4VrTxrYiyEG15JAbdmbX3tq/IJqLphm/tDgLz+7+3bk163wPd+2PJWQ50t61jEp/oh97KncCGOrZox9Tl7saEQfpUdWxV7r0CewhKpwvSd/F4zLJP9jVIj90/L3u7rmzTjoMUpM/qevXJSvLjjy4479aYj883b9tutry7Twwz40Yp8cto8+cRzRtRBu+0pbqUpf3gsQ+X77zw/NPD3bYS4DCQ4g5sVEr+8Kfvnbi9cOezpTRfadr88yj5bGT8cUScjigPR4mT3SaT3XCr2xG++z/5u6mTSW3yq3uWNtrzpW/X7X5AO/Y05f2A9EkvdTyg7p7K/VQxOyp3l4/HnPfJtuZ2+UXs32t1Fn0y69dmGeexd7uOlu6mMD4RJPNuKbEcmTez2xAuy7m2jf/OYftaW/JKfPbLd156Lm0GBxx5YQYd+JTM8pOI5TOvvdbcvtPWJeoTkbnaRnm3RHw+Ih+LLI9m5EMZcbJEF6znQyXKw9VgUI93fV8L1zcZ0G0zCzOrmbryyS82q2de1rx+oh2zDormfg3wNu2YeUDU48Zx+7mB3qQT0Vv93mb90eOhDluWN01gutUM9EEN1Dctcw4C9fX9XNaWO7XD1e7rlcz4qJTojkfrgvKlaMutqPLDbNtrkXGhbfNXdeT5m6vN5XPPP7U4/R8DcHgI0IFNffPpF0bnzv3dh6vDfL3U9YXBqHm8qfILUcoTmdXnSyl/kJmPRymnI+JzXeJ7RHRBemRdfZzuOLHcu8HtpzJFe941erd/Rz5gtnLPAvZ5mU2P/d3hfRa7u2/6Dw+yi3bMcX9sX8dWP5jzN432dNO4rd5knLARn/y19d8/sJvz01/f33+kO+mjbduIvBVRrkTE1ZJxPSOuReaVaPNiW+XFhaq6UlX54fDO6q146ilnnAN8ghR3YCJnfvzj+sYXv/q5UX3iyUGdT7Rt+8UsVRewf7Fk+VJEdB+nM+KhiKxLlKpbhjhemp65ychxsym7GQXp66vbcjT6oCm9ndSxG5u1pfRQ7k7bvk07pip3NyZsy0z6Jzfpk+kq2vQpOEk7PvX9BAUc1AA9ZjRj3Gt/2Nl9vKIp1q7vGdmWjDZLWS0RNyPyYhmnseeFbONSlXGxlLg4aNr37rQPX3j570/bBA5gGwJ0YGLfffHFwYmHP3d6OKpOlxw9Hm0+XmU8dm82/XSJ9tHIPBEl6i7PfZzovjZbPcFQcN3l6KCefDv1AL3a+kd71Sfrg9Kd3CE2279qJkHRHgbo0U+/j5tXTVvWNs+NLSudkXYvhw49bWLYa3/Mwet0g/3Zr6BbWh7j91+rtlt1nhnDKOVOW/J6RrnaZrk+aPN6Zn29qsr1qj119V//5vFb09UKcPgJ0IEd+dtXXjm13Jw6OSqDkwtleLKN5mQd9ckm21OZeTyiDLqdgUqTeW+v926j9/mwbUPqeWnl/pp2m6b1C6d62/Jpr1ZjrW/wDOucmxfEnNqyf474a3Tunjdrj0dWUbq2tVnaKnO1amO5zbJU1WX57nKudJ8XjrfLNx59aunct9MO7QAPIEAHdqh8PB9+9mxGnI1/PBvxxgsvHPDryZk5aAPAQfZCfPPMmRJnI37U/RVn183Tb7rUCQAAAAAAAAAAAAAAAAAAAAAAAAAAAAAAAAAAAAAAAAAAAAAAAAAAAAAAAAAAAAAAAAAAAAAAAAAAAAAAAAAAAAAAAAAAAAAAAAAAAAAAAAAAAAAAAAAAAAAAAAAAAAAAAAAAAAAAAAAAAAAAAAAAAAAAAAAAAAAAAAAAAAAAAAAAAAAAAAAAAAAAAAAAAAAAAAAAAAAAAAAAAAAAAAAAAAAAAAAAAAAAAAAAAAAAAAAAAAAAAAAAAAAAAAAAAAAAAAAAAAAAAAAAAAAAAAAAAAAAAAAAAAAAAAAAAAAAAAAAAAAAAAAAAAAAAAAAAAAAAAAAAAAAAAAAAAAAAAAAAAAAAAAAAAAAAAAAAAAAAAAAAAAAAAAAAAAAAAAAAAAAAAAAAAAAAAAAAAAAAAAAAAAAAAAAAAAAAAAAAAAAAAAAAAAAAAAAAAAAAAAAAAAAAAAAAAAAAAAAAAAAAAAAAAAAAAAAAAAAAAAAAAAAAAAAAAAAAAAAAAAAAAAAAAAAAAAAAAAAAAAAAAAAAAAAAAAAAAAAAAAAAAAAAAAAAAAAAAAAAAAAAAAAAAAAAAAAAAAAAAAAAAAAAAAAAAAAAAAAAAAAAAAAAAAAAAAAAAAAAAAAAAAAAAAAAAAAAGD/RcT/A7jBe9+CEClLAAAAAElFTkSuQmCC;fontColor=#4277BB;whiteSpace=wrap;" parent="9PhllvtnjBpvdxcWGEBJ-3" vertex="1">
          <mxGeometry x="220" y="180" width="60" height="60" as="geometry" />
        </mxCell>
        <mxCell id="mBXOT76YMNYvzBuWMiyg-1" value="Secrets Manager" style="shape=image;verticalLabelPosition=bottom;labelBackgroundColor=default;verticalAlign=top;aspect=fixed;imageAspect=0;image=data:image/svg+xml,PHN2ZyB4bWxuczp4bGluaz0iaHR0cDovL3d3dy53My5vcmcvMTk5OS94bGluayIgeG1sbnM9Imh0dHA6Ly93d3cudzMub3JnLzIwMDAvc3ZnIiB4bWw6c3BhY2U9InByZXNlcnZlIiBzdHlsZT0iZW5hYmxlLWJhY2tncm91bmQ6bmV3IDAgMCAzMiAzMjsiIHZpZXdCb3g9IjAgMCAzMiAzMiIgeT0iMHB4IiB4PSIwcHgiIGlkPSJDbG91ZFNlY3JldHNNYW5hZ2VyIiB2ZXJzaW9uPSIxLjEiPiYjeGE7PHN0eWxlIHR5cGU9InRleHQvY3NzIj4mI3hhOwkuc3Qwe2ZpbGw6I0ZGRkZGRjtmaWx0ZXI6dXJsKCNBZG9iZV9PcGFjaXR5TWFza0ZpbHRlcik7fSYjeGE7CS5zdDF7ZmlsbDp1cmwoI0dyYWRpZW50c19fYmxhY2tfXzAwMDAwMDM0NzczMTE1OTE4NDk1NzYzOTEwMDAwMDE1ODk5NjAyNTc5MzMxMjA1NTExXyk7fSYjeGE7CS5zdDJ7ZmlsbDojRkZGRkZGO30mI3hhOwkuc3Qze21hc2s6dXJsKCNtYXNrXzAwMDAwMDI1NDMzOTU2MDgyMzU2NDIzODMwMDAwMDA3MzUyNDkxNzM0Mjk2MjQ4MTkyXyk7fSYjeGE7CS5zdDR7ZmlsbDp1cmwoI1NWR0lEXzFfKTt9JiN4YTsJLnN0NXtmaWxsOiMwMDFENkM7fSYjeGE7PC9zdHlsZT4mI3hhOzxkZWZzPiYjeGE7CTxmaWx0ZXIgaGVpZ2h0PSIzMiIgd2lkdGg9IjMyIiB5PSIwIiB4PSIwIiBmaWx0ZXJVbml0cz0idXNlclNwYWNlT25Vc2UiIGlkPSJBZG9iZV9PcGFjaXR5TWFza0ZpbHRlciI+JiN4YTsJCTxmZUNvbG9yTWF0cml4IHZhbHVlcz0iMSAwIDAgMCAwICAwIDEgMCAwIDAgIDAgMCAxIDAgMCAgMCAwIDAgMSAwIiB0eXBlPSJtYXRyaXgiLz4mI3hhOwk8L2ZpbHRlcj4mI3hhOzwvZGVmcz4mI3hhOzxtYXNrIGlkPSJtYXNrXzAwMDAwMDI1NDMzOTU2MDgyMzU2NDIzODMwMDAwMDA3MzUyNDkxNzM0Mjk2MjQ4MTkyXyIgaGVpZ2h0PSIzMiIgd2lkdGg9IjMyIiB5PSIwIiB4PSIwIiBtYXNrVW5pdHM9InVzZXJTcGFjZU9uVXNlIj4mI3hhOwk8cGF0aCBkPSJNMTYsMzBDOC4zLDMwLDIsMjMuNywyLDE2UzguMywyLDE2LDJzMTQsNi4zLDE0LDE0UzIzLjcsMzAsMTYsMzB6IE0xNiw0QzkuNCw0LDQsOS40LDQsMTZzNS40LDEyLDEyLDEyICAgczEyLTUuNCwxMi0xMlMyMi42LDQsMTYsNHoiIGNsYXNzPSJzdDAiLz4mI3hhOwkmI3hhOwkJPGxpbmVhckdyYWRpZW50IGdyYWRpZW50VHJhbnNmb3JtPSJtYXRyaXgoLTAuNDYyMiAxLjA3NyAwLjY0NiAwLjI3NzIgLTE2MDYuMjUzMSAtMjk1NC40NDU4KSIgeTI9IjM4MDEuNDQzNCIgeDI9IjE3OTIuNjcxMSIgeTE9IjM4MDEuNDQzNCIgeDE9IjE3ODAuMzMwMSIgZ3JhZGllbnRVbml0cz0idXNlclNwYWNlT25Vc2UiIGlkPSJHcmFkaWVudHNfX2JsYWNrX18wMDAwMDEwOTAyMDI4NTEyNTg3NTg1NjEwMDAwMDAxNDIwNzg2ODc2NTY4Mzk4NjU5MF8iPiYjeGE7CQk8c3RvcCBzdHlsZT0ic3RvcC1jb2xvcjojMDAwMDAwIiBvZmZzZXQ9IjAuMTc5Ii8+JiN4YTsJCTxzdG9wIHN0eWxlPSJzdG9wLWNvbG9yOiMwMDAwMDA7c3RvcC1vcGFjaXR5OjAiIG9mZnNldD0iMC45NjQiLz4mI3hhOwk8L2xpbmVhckdyYWRpZW50PiYjeGE7CSYjeGE7CQk8cGF0aCBkPSJNMzEuOCwxNy41bC02LDE0bC05LTMuOWw2LTE0TDMxLjgsMTcuNXoiIHN0eWxlPSJmaWxsOnVybCgjR3JhZGllbnRzX19ibGFja19fMDAwMDAxMDkwMjAyODUxMjU4NzU4NTYxMDAwMDAwMTQyMDc4Njg3NjU2ODM5ODY1OTBfKTsiIGlkPSJHcmFkaWVudHNfX2JsYWNrX18wMDAwMDE2MzA3MTk4MjE2OTkxMjI1OTY4MDAwMDAxMDA0OTE4MzM2NDMxODA5NTI4OV8iLz4mI3hhOwk8cGF0aCBkPSJNMjYsMTVoNnYyaC02VjE1eiIgY2xhc3M9InN0MiIvPiYjeGE7PC9tYXNrPiYjeGE7PGcgY2xhc3M9InN0MyI+JiN4YTsJJiN4YTsJCTxsaW5lYXJHcmFkaWVudCBncmFkaWVudFRyYW5zZm9ybT0ibWF0cml4KDEgMCAwIC0xIDAgLTMwKSIgeTI9Ii0zMCIgeDI9IjMyIiB5MT0iLTYyIiB4MT0iLTkuMDk0OTQ3ZS0xMyIgZ3JhZGllbnRVbml0cz0idXNlclNwYWNlT25Vc2UiIGlkPSJTVkdJRF8xXyI+JiN4YTsJCTxzdG9wIHN0eWxlPSJzdG9wLWNvbG9yOiMwOEJEQkEiIG9mZnNldD0iMC4xIi8+JiN4YTsJCTxzdG9wIHN0eWxlPSJzdG9wLWNvbG9yOiMwRjYyRkUiIG9mZnNldD0iMC45Ii8+JiN4YTsJPC9saW5lYXJHcmFkaWVudD4mI3hhOwk8cGF0aCBkPSJNMCwwaDMydjMySDBWMHoiIGNsYXNzPSJzdDQiLz4mI3hhOzwvZz4mI3hhOzxwYXRoIGQ9Ik0yMCwxNmMwLTAuNy0wLjItMS40LTAuNi0ybDMuMy0zLjNsLTEuNC0xLjRMMTgsMTIuNmMtMC42LTAuNC0xLjMtMC42LTItMC42cy0xLjQsMC4yLTIsMC42bC0zLjMtMy4zbC0xLjQsMS40ICBsMy4zLDMuM2MtMC40LDAuNi0wLjYsMS4zLTAuNiwyczAuMiwxLjQsMC42LDJsLTMuMywzLjNsMS40LDEuNGwzLjMtMy4zYzAuNiwwLjQsMS4zLDAuNiwyLDAuNmMwLjcsMCwxLjQtMC4yLDItMC42bDMuMywzLjMgIGwxLjQtMS40TDE5LjQsMThDMTkuOCwxNy40LDIwLDE2LjcsMjAsMTZ6IE0xNiwxOGMtMS4xLDAtMi0wLjktMi0yczAuOS0yLDItMnMyLDAuOSwyLDJTMTcuMSwxOCwxNiwxOHoiIGNsYXNzPSJzdDUiLz4mI3hhOzwvc3ZnPg==;fontColor=#4277BB;whiteSpace=wrap;" parent="9PhllvtnjBpvdxcWGEBJ-3" vertex="1">
          <mxGeometry x="280" y="50" width="60" height="60" as="geometry" />
        </mxCell>
        <mxCell id="9PhllvtnjBpvdxcWGEBJ-9" value="Public Network" style="shape=mxgraph.ibm.box;prType=public;fontStyle=0;verticalAlign=top;align=left;spacingLeft=32;spacingTop=4;fillColor=none;rounded=0;whiteSpace=wrap;html=1;strokeColor=#4376BB;strokeWidth=3;dashed=0;container=1;spacing=-4;collapsible=0;expand=0;recursiveResize=0;fontColor=#4277BB;" parent="1" vertex="1">
          <mxGeometry x="160" y="120" width="240" height="480" as="geometry" />
        </mxCell>
        <mxCell id="9PhllvtnjBpvdxcWGEBJ-11" value="End-User" style="aspect=fixed;perimeter=ellipsePerimeter;html=1;align=center;shadow=0;dashed=0;fontColor=#4277BB;labelBackgroundColor=#ffffff;fontSize=12;spacingTop=3;image;image=img/lib/ibm/users/user.svg;" parent="9PhllvtnjBpvdxcWGEBJ-9" vertex="1">
          <mxGeometry x="100" y="210" width="60" height="60" as="geometry" />
        </mxCell>
        <mxCell id="9PhllvtnjBpvdxcWGEBJ-14" style="edgeStyle=orthogonalEdgeStyle;shape=connector;rounded=0;orthogonalLoop=1;jettySize=auto;html=1;labelBackgroundColor=default;strokeColor=#0072C3;strokeWidth=2;fontFamily=Helvetica;fontSize=11;fontColor=#4277BB;endArrow=none;endFill=0;" parent="1" source="9PhllvtnjBpvdxcWGEBJ-11" target="9PhllvtnjBpvdxcWGEBJ-7" edge="1">
          <mxGeometry relative="1" as="geometry" />
        </mxCell>
      </root>
    </mxGraphModel>
  </diagram>
</mxfile>
